<?xml version="1.0" encoding="utf-8"?>
<svg version="1.1" id="Слой_1" xmlns="http://www.w3.org/2000/svg" x="0px" y="0px" viewBox="0 0 2664.57 5754.33" style="enable-background:new 0 0 2664.57 5754.33;">
  <style type="text/css">
	.st0{fill:#EE7414;}
	.st1{fill:#FEDD39;}
	.st2{fill:none;stroke:#EE7414;stroke-width:17;stroke-linecap:round;stroke-linejoin:round;}
	.st3{fill:none;stroke:#EE7414;stroke-width:20;stroke-linecap:round;stroke-linejoin:round;}
	.st4{fill:#274999;}
	.st5{fill:none;}
	.st6{font-family:'GoodDog';}
	.st7{font-size:660px;}
	.st8{letter-spacing:-3;}
</style>
  <path class="st0" d="M1874.08,4074.88c-23.21,79.58-68.36,151.44-130.54,207.79c-62.18,56.34-139.02,95.01-222.17,111.81 l-6.23-29.26c77.66-15.69,149.43-51.81,207.51-104.43c58.08-52.63,100.24-119.75,121.92-194.08L1874.08,4074.88z"/>
  <path class="st0" d="M1249.7,4369.66c-85.33-34.31-158.24-92.6-209.44-167.44c-51.19-74.84-78.35-162.83-78.01-252.77l30.67,0.11 c-0.32,84,25.05,166.19,72.86,236.09c47.82,69.9,115.91,124.35,195.62,156.39L1249.7,4369.66z"/>
  <path class="st1" d="M1467.72,4339.7c4.86-2.09,10.5,0.15,12.59,5.01c2.09,4.86-0.15,10.5-5.01,12.59L1467.72,4339.7z M1449.05,4295.94c4.98-1.79,10.47,0.79,12.26,5.77c1.79,4.98-0.8,10.47-5.78,12.26L1449.05,4295.94z M1433.92,4446.42 c-0.83-5.23,2.73-10.14,7.96-10.97c5.22-0.83,10.14,2.73,10.97,7.96L1433.92,4446.42z M1386.99,4460.89 c-1.86-4.95,0.64-10.48,5.59-12.34c4.95-1.86,10.48,0.64,12.34,5.59L1386.99,4460.89z M1272.8,4499.3 c-0.83-5.22,2.73-10.14,7.96-10.97c5.22-0.83,10.14,2.73,10.97,7.96L1272.8,4499.3z M1228.55,4505.54 c-0.38-5.28,3.6-9.86,8.88-10.24c5.28-0.37,9.86,3.6,10.24,8.88L1228.55,4505.54z M1360.48,4401.32c-2.12,4.85-7.77,7.06-12.62,4.95 c-4.85-2.12-7.06-7.77-4.95-12.62L1360.48,4401.32z M1318.18,4385.64c-0.89,5.22-5.85,8.72-11.06,7.82 c-5.22-0.89-8.72-5.85-7.83-11.06L1318.18,4385.64z M1311.11,4666.49l8.13,5.08l-10.16,16.25l-8.13-5.08L1311.11,4666.49z M1278.44,4698.86c0.5,5.27-3.36,9.95-8.63,10.45c-5.27,0.5-9.95-3.36-10.45-8.63L1278.44,4698.86z M1475.31,4357.3 c-19.31,8.32-36.87-3.89-43.88-17.63c-3.63-7.13-5.24-15.91-2.54-24.36c2.81-8.79,9.77-15.65,20.15-19.38l6.48,18.03 c-5.7,2.05-7.66,4.94-8.38,7.18c-0.82,2.57-0.54,6.08,1.36,9.82c4.07,7.98,12.2,11.76,19.22,8.73L1475.31,4357.3z M1452.85,4443.41 c3.44,21.59-7.36,38.44-23.77,42.93c-16.54,4.53-34.28-4.69-42.09-25.44l17.94-6.75c4.95,13.15,13.72,15.18,19.1,13.71 c5.51-1.51,12.05-7.91,9.9-21.43L1452.85,4443.41z M1291.73,4496.29c3.59,22.54-10.02,38.82-26.64,41.97 c-8.2,1.55-17.11-0.16-24.24-6.02c-7.17-5.9-11.48-15.13-12.3-26.7l19.11-1.36c0.54,7.57,3.13,11.42,5.37,13.27 c2.28,1.88,5.28,2.59,8.48,1.99c6.17-1.17,13.28-7.56,11.28-20.13L1291.73,4496.29z M1342.91,4393.65 c4.02-9.22-0.93-17.17-8.59-20.1c-3.71-1.42-7.11-1.18-9.55,0.16c-2.25,1.24-5.29,4.3-6.6,11.93l-18.89-3.24 c2.05-11.92,7.72-20.79,16.25-25.48c8.33-4.58,17.76-4.28,25.63-1.27c15.49,5.92,28.66,24.24,19.31,45.67L1342.91,4393.65z M1300.95,4682.74c0,0-0.37-0.22-1.32-0.41c-0.91-0.19-2.1-0.3-3.52-0.27c-2.88,0.08-6.15,0.78-9.1,2.14 c-2.93,1.36-5.21,3.22-6.65,5.43c-1.37,2.09-2.33,4.99-1.92,9.23l-19.08,1.82c-0.79-8.33,1.09-15.62,4.96-21.54 c3.8-5.8,9.16-9.78,14.62-12.32c5.44-2.53,11.3-3.77,16.65-3.92c5.11-0.14,10.91,0.7,15.52,3.59L1300.95,4682.74z"/>
  <path class="st1" d="M1535.98,4274.77l-14.35-0.81L1535.98,4274.77z M1443.9,4792.62c0.98-7.88,8.17-13.46,16.04-12.48 c7.88,0.98,13.47,8.17,12.48,16.05L1443.9,4792.62z M1373.17,4843.11l-2.93-14.07c4.09-0.85,8.36,0.12,11.68,2.66L1373.17,4843.11z M1310.4,4807.86l1.2-14.32c6.28,0.52,11.48,5.07,12.84,11.23L1310.4,4807.86z M1246.07,4749.69l3.58-13.92 c6,1.54,10.34,6.76,10.76,12.94L1246.07,4749.69z M1200.67,4685.9l9.04-11.18c4.16,3.36,6.1,8.75,5.05,13.99L1200.67,4685.9z M1176.37,4590.28l10.12-10.21c4.54,4.5,5.57,11.45,2.52,17.06L1176.37,4590.28z M1173.54,4500.04l13.61-4.64 c1.65,4.84,0.6,10.2-2.76,14.06L1173.54,4500.04z M1195.99,4438.32l14.37-0.18c0.06,5.2-2.69,10.03-7.19,12.63L1195.99,4438.32z M1251.46,4354.16l14.11,2.75c-1.1,5.65-5.46,10.1-11.09,11.31L1251.46,4354.16z M1312.34,4301.65l13.4,5.21 c-2.13,5.47-7.37,9.1-13.24,9.16L1312.34,4301.65z M1392.95,4238.89c7.93-0.38,14.67,5.74,15.05,13.66 c0.38,7.93-5.73,14.67-13.66,15.05L1392.95,4238.89z M1520.05,4262.3c-1.83-7.73,2.96-15.47,10.68-17.29 c7.73-1.82,15.47,2.96,17.29,10.69L1520.05,4262.3z M1472.42,4796.19c-2.3,18.38-2.5,34.95-3.08,49.57 c-0.28,7.12-0.66,14.05-1.54,20.12c-0.85,5.85-2.34,12.44-5.75,18.02c-3.89,6.36-10.1,11.06-18.49,12.13 c-7.31,0.94-14.74-1.1-21.62-4c-13.82-5.83-32.42-18.29-57.51-37.52l17.49-22.82c25.19,19.3,41.16,29.61,51.2,33.85 c5.05,2.13,6.88,1.96,6.78,1.97c-0.26,0.03-0.89,0.19-1.58,0.65c-0.65,0.44-0.87,0.84-0.8,0.73c0.33-0.54,1.15-2.46,1.83-7.14 c0.65-4.46,0.99-10.08,1.27-17.14c0.54-13.74,0.79-32.06,3.28-52.01L1472.42,4796.19z M1376.11,4857.18 c-11.6,2.42-28.63,0.56-43.61-5.81c-15.26-6.5-31.44-19.07-36.14-40.41l28.07-6.2c1.98,8.99,8.98,15.74,19.33,20.15 c10.63,4.53,21.65,5.13,26.48,4.12L1376.11,4857.18z M1310.4,4807.86c-1.2,14.32-1.2,14.32-1.21,14.32c0,0-0.01,0-0.01,0 c-0.01,0-0.02,0-0.03,0c-0.02,0-0.05,0-0.08-0.01c-0.06,0-0.14-0.01-0.23-0.02c-0.18-0.02-0.42-0.04-0.72-0.08 c-0.59-0.06-1.4-0.17-2.39-0.31c-1.99-0.29-4.75-0.76-8.04-1.51c-6.53-1.48-15.41-4.11-24.57-8.74 c-18.52-9.37-39.1-27.65-41.38-60.85l28.68-1.96c1.36,19.91,12.94,30.71,25.67,37.15c6.48,3.27,12.99,5.23,17.96,6.36 c2.46,0.56,4.47,0.9,5.81,1.09c0.67,0.1,1.17,0.16,1.47,0.19c0.15,0.02,0.25,0.03,0.3,0.03c0.02,0,0.03,0,0.03,0c0,0-0.01,0-0.02,0 c0,0-0.01,0-0.02,0c0,0-0.01,0-0.01,0C1311.6,4793.54,1311.59,4793.54,1310.4,4807.86z M1246.07,4749.69 c-3.58,13.92-3.59,13.92-3.59,13.92c0,0-0.01,0-0.01,0c-0.01,0-0.02-0.01-0.03-0.01c-0.02,0-0.05-0.01-0.08-0.02 c-0.06-0.02-0.13-0.04-0.22-0.06c-0.17-0.05-0.4-0.11-0.67-0.19c-0.55-0.16-1.29-0.38-2.2-0.68c-1.81-0.59-4.31-1.47-7.24-2.7 c-5.8-2.43-13.6-6.33-21.18-12.21c-15.56-12.05-30.6-33.05-24.28-64.66l28.19,5.63c-3.59,17.95,4.08,28.85,13.69,36.3 c5.01,3.88,10.42,6.63,14.68,8.42c2.1,0.88,3.85,1.5,5.02,1.88c0.58,0.19,1.02,0.32,1.28,0.4c0.13,0.04,0.21,0.06,0.25,0.07 c0.02,0,0.02,0.01,0.02,0c0,0-0.01,0-0.02,0c0,0-0.01,0-0.02,0c0,0-0.01,0-0.01,0C1249.66,4735.77,1249.65,4735.77,1246.07,4749.69z M1200.67,4685.9c-9.04,11.17-9.05,11.17-9.05,11.17c0,0-0.01-0.01-0.01-0.01c-0.01-0.01-0.02-0.01-0.03-0.02 c-0.02-0.02-0.04-0.03-0.07-0.06c-0.05-0.04-0.11-0.1-0.19-0.16c-0.15-0.13-0.35-0.29-0.6-0.51c-0.49-0.42-1.16-1.01-1.98-1.76 c-1.63-1.49-3.86-3.64-6.41-6.37c-5.06-5.42-11.56-13.36-17.1-23.3c-11.19-20.06-18.89-49.38-1.49-81.47l25.27,13.7 c-11.23,20.72-6.79,39.21,1.33,53.76c4.11,7.37,9.05,13.44,13.02,17.69c1.97,2.11,3.65,3.72,4.8,4.78c0.57,0.52,1.01,0.91,1.28,1.14 c0.13,0.11,0.23,0.19,0.27,0.23c0.02,0.02,0.04,0.03,0.03,0.03c0,0,0,0-0.01-0.01c0,0-0.01,0-0.01-0.01c0,0,0,0-0.01-0.01 C1209.71,4674.73,1209.71,4674.73,1200.67,4685.9z M1176.37,4590.28c-10.11,10.21-10.12,10.21-10.12,10.2c0,0-0.01-0.01-0.01-0.01 c-0.01-0.01-0.02-0.02-0.03-0.03c-0.02-0.02-0.04-0.04-0.06-0.06c-0.05-0.05-0.11-0.11-0.18-0.18c-0.14-0.14-0.31-0.33-0.53-0.55 c-0.43-0.45-1-1.08-1.68-1.86c-1.37-1.56-3.2-3.79-5.22-6.59c-4.01-5.56-8.97-13.67-12.46-23.69c-7.23-20.76-7.69-48.92,16.61-76.89 l21.7,18.85c-16.52,19.01-15.56,35.97-11.17,48.58c2.32,6.67,5.73,12.31,8.62,16.32c1.43,1.98,2.69,3.5,3.56,4.49 c0.43,0.49,0.75,0.84,0.95,1.05c0.1,0.1,0.16,0.17,0.18,0.19c0.01,0.01,0.01,0.02,0.01,0.01c0,0-0.01-0.01-0.02-0.02 c0,0-0.01-0.01-0.01-0.01c0,0-0.01-0.01-0.01-0.01C1186.49,4580.07,1186.49,4580.06,1176.37,4590.28z M1173.54,4500.04 c-13.61,4.64-13.61,4.63-13.61,4.62c0,0,0-0.01,0-0.01c0-0.01-0.01-0.02-0.01-0.03c-0.01-0.02-0.02-0.05-0.03-0.07 c-0.02-0.06-0.04-0.12-0.06-0.19c-0.05-0.15-0.11-0.34-0.18-0.57c-0.14-0.46-0.32-1.07-0.52-1.82c-0.4-1.5-0.9-3.58-1.34-6.11 c-0.89-5.02-1.63-12.05-0.97-20.01c1.36-16.3,8.8-36.6,32-49.97l14.36,24.9c-13.15,7.58-16.93,18.15-17.71,27.46 c-0.4,4.86,0.05,9.32,0.63,12.6c0.29,1.62,0.59,2.89,0.81,3.7c0.11,0.4,0.19,0.69,0.24,0.84c0.02,0.08,0.04,0.12,0.04,0.12 c0,0,0,0-0.01-0.02c0-0.01,0-0.02-0.01-0.03c0-0.01,0-0.01-0.01-0.02c0,0,0-0.01,0-0.01 C1187.14,4495.41,1187.14,4495.41,1173.54,4500.04z M1195.99,4438.32c-14.37,0.18-14.37,0.17-14.37,0.17c0,0,0-0.01,0-0.01 c0-0.01,0-0.02,0-0.03c0-0.02,0-0.05,0-0.08c0-0.07,0-0.15,0-0.25c0-0.2,0-0.47,0-0.8c0.01-0.66,0.03-1.58,0.08-2.73 c0.1-2.29,0.31-5.5,0.75-9.35c0.88-7.66,2.71-18.15,6.57-29.2c7.69-22,24.38-48.41,59.42-55.93l6.03,28.11 c-21.32,4.57-32.35,20.24-38.31,37.3c-2.96,8.48-4.43,16.76-5.15,22.99c-0.35,3.09-0.52,5.61-0.59,7.31 c-0.04,0.85-0.05,1.49-0.06,1.89c0,0.2,0,0.34,0,0.41c0,0.04,0,0.06,0,0.06c0,0,0,0,0,0s0-0.01,0-0.01c0,0,0-0.01,0-0.01 C1210.37,4438.15,1210.37,4438.15,1195.99,4438.32z M1251.46,4354.16c-14.11-2.75-14.11-2.75-14.11-2.76c0,0,0-0.01,0-0.01 c0-0.01,0-0.02,0.01-0.03c0-0.02,0.01-0.05,0.02-0.08c0.01-0.06,0.03-0.13,0.05-0.22c0.04-0.17,0.08-0.39,0.14-0.66 c0.12-0.53,0.29-1.26,0.53-2.14c0.47-1.76,1.18-4.18,2.2-7.05c2.03-5.69,5.38-13.38,10.68-21.17 c10.79-15.88,29.97-32.41,61.22-32.75l0.32,28.75c-19.53,0.21-30.8,9.93-37.76,20.17c-3.58,5.26-5.93,10.6-7.38,14.67 c-0.72,2.01-1.19,3.65-1.48,4.73c-0.14,0.54-0.23,0.93-0.29,1.16c-0.02,0.11-0.04,0.18-0.05,0.21c0,0.01,0,0.01,0,0 c0,0,0-0.01,0-0.02c0-0.01,0-0.01,0-0.02c0,0,0-0.01,0-0.01C1265.56,4356.92,1265.56,4356.91,1251.46,4354.16z M1312.34,4301.65 c-13.4-5.21-13.39-5.22-13.39-5.23c0,0,0-0.01,0-0.02c0-0.01,0.01-0.02,0.02-0.04c0.01-0.03,0.02-0.06,0.03-0.09 c0.03-0.06,0.06-0.14,0.09-0.23c0.07-0.17,0.16-0.39,0.27-0.65c0.22-0.51,0.53-1.19,0.92-2.01c0.8-1.63,1.96-3.83,3.55-6.42 c3.19-5.17,8.14-11.95,15.38-18.81c14.68-13.9,38.2-27.56,73.72-29.28l1.39,28.71c-28.16,1.36-45.28,11.91-55.34,21.43 c-5.13,4.86-8.56,9.6-10.67,13.02c-1.05,1.71-1.76,3.07-2.18,3.93c-0.21,0.43-0.34,0.73-0.41,0.88c-0.03,0.08-0.05,0.12-0.05,0.11 c0,0,0-0.01,0.01-0.03c0-0.01,0.01-0.02,0.01-0.04c0-0.01,0.01-0.02,0.01-0.03c0,0,0-0.01,0.01-0.01 C1325.74,4306.87,1325.74,4306.86,1312.34,4301.65z M1521.63,4273.96c0.08-1.35-0.17-3.97-0.67-7c-0.23-1.36-0.46-2.56-0.64-3.42 c-0.09-0.43-0.16-0.76-0.21-0.98c-0.02-0.11-0.04-0.19-0.05-0.23c0-0.02-0.01-0.04-0.01-0.04c0,0,0,0,0,0c0,0,0,0,0,0c0,0,0,0,0,0 c0,0,0,0,0,0c0,0,0,0,13.99-3.3c13.99-3.3,13.99-3.3,13.99-3.3v0c0,0,0,0,0,0.01c0,0,0,0.01,0,0.01c0,0.01,0.01,0.02,0.01,0.04 c0.01,0.03,0.02,0.07,0.03,0.12c0.02,0.1,0.06,0.24,0.09,0.4c0.08,0.34,0.18,0.81,0.3,1.38c0.24,1.15,0.55,2.74,0.86,4.57 c0.56,3.33,1.28,8.6,1.02,13.33L1521.63,4273.96z M1550.33,4275.57c-2.11,37.61-9.04,103.24-15.85,160.23 c-3.41,28.56-6.81,55.1-9.59,75.05c-1.39,9.97-2.63,18.37-3.65,24.58c-0.51,3.1-0.98,5.76-1.39,7.84c-0.29,1.44-0.85,4.26-1.78,6.44 l-26.42-11.34c-0.48,1.13-0.44,1.51,0.01-0.74c0.32-1.61,0.73-3.89,1.21-6.84c0.97-5.89,2.17-14.03,3.54-23.9 c2.74-19.72,6.12-46.07,9.51-74.5c6.81-57,13.64-121.82,15.69-158.44L1550.33,4275.57z"/>
  <path class="st2" d="M1313.63,4584.46l132.67,70.06l-114.98-60.72c-14.65-7.74-32.43-2.85-39.7,10.92 c-7.27,13.77-1.29,31.21,13.37,38.95l114.98,60.72l-61.91-32.69c-14.65-7.74-32.43-2.85-39.7,10.92 c-7.27,13.77-1.29,31.21,13.37,38.95l150.35,79.4c58.62,30.95,129.72,11.39,158.8-43.69l9.9-18.74c13.38-25.34,16-55.15,7.32-83.37 l-52.33-113.38c-29.94-48.03-84.11-79.18-93.69-42.05c-17.98,4.95,35.93,34.74,39.49,51.24l2.4,29.01l-134.58-67.24 c-14.65-7.74-32.43-2.85-39.7,10.92c-7.27,13.77-1.29,31.21,13.37,38.95l79.6,42.03l-132.67-70.06 c-14.65-7.74-32.43-2.85-39.7,10.92C1292.99,4559.28,1298.97,4576.72,1313.63,4584.46z"/>
  <path class="st1" d="M1521.67,4270.08c0.48-7.92,7.29-13.96,15.22-13.48c7.92,0.48,13.96,7.29,13.48,15.21L1521.67,4270.08z M1550.36,4271.82c-2.42,39.95-9.04,104.73-15.48,160.42c-3.22,27.88-6.42,53.6-9.04,72.93c-1.31,9.65-2.48,17.78-3.46,23.82 c-0.48,3.01-0.93,5.6-1.34,7.65c-0.29,1.46-0.83,4.18-1.73,6.32l-26.49-11.16c-0.45,1.06-0.4,1.38,0.03-0.76 c0.31-1.55,0.7-3.76,1.16-6.62c0.92-5.69,2.06-13.55,3.35-23.11c2.59-19.08,5.76-44.6,8.97-72.37 c6.43-55.61,12.97-119.74,15.34-158.85L1550.36,4271.82z"/>
  <path class="st3" d="M901.16,3846.91c53.5-5.59,99.66,0.48-28.75,69.47 M872.42,3916.39c-31.88,17.13-59.89,23.96,0,30.24 M872.42,3916.39v30.24 M1346.76,3777.44c-103.55,122.46-329.41,169.19-474.34,169.19 M1346.76,3778.64 c-14.37,28.75-34.74,62.29-111.4,134.16c-18.86,17.68,256.34,34.74,371.33-118.59c0,0,160.51,49.95,264.72,297.06 c57.5-59.89,55.1-212.02,20.36-313.83 M1152.71,4011.02c0,56.3,89.84,103.01,141.34,28.75 M1280.88,4215.85 c47.52,34.34,194.05,73.07,298.26-10.78 M1579.14,4163.14c0,19.17,12.46,42.16,33.54,52.7 M1543.2,4011.02 c0,56.3,99.42,110.2,143.74,28.75"/>
  <path class="st4" d="M859.24,3870.87l-15.45-6.52c-2.78,6.59-1.08,14.21,4.24,18.99c5.32,4.78,13.08,5.66,19.33,2.2L859.24,3870.87z M1825.89,3897.22l-9.53,13.8c5.52,3.81,12.79,3.97,18.47,0.39L1825.89,3897.22z M1037.72,3689.25l-6.75-15.35L1037.72,3689.25z M1900.16,3789.42l16.23,4.23c0.37-1.43,0.55-2.9,0.54-4.37L1900.16,3789.42z M1479.72,3351.46c-9.26,0-16.77,7.51-16.77,16.77 s7.51,16.77,16.77,16.77V3351.46z M1619.86,3645.76l-4.13,16.25L1619.86,3645.76z M1488.95,3375.79c-7.73-5.1-18.13-2.97-23.23,4.77 c-5.1,7.73-2.97,18.13,4.77,23.23L1488.95,3375.79z M1609.04,3511.97l16.48-3.1l-0.22-1.17l-0.38-1.13L1609.04,3511.97z M1379.1,3371.82c9.26,0,16.77-7.51,16.77-16.77c0-9.26-7.51-16.77-16.77-16.77V3371.82z M1247.34,3631.75l2.43,16.59 L1247.34,3631.75z M1378.34,3413.03c6.89-6.2,7.44-16.8,1.25-23.68c-6.2-6.88-16.8-7.44-23.68-1.25L1378.34,3413.03z M1416.57,3387.86c-9-2.17-18.06,3.36-20.24,12.37c-2.17,9,3.36,18.06,12.37,20.24L1416.57,3387.86z M1459.35,3334.69l13.95-9.3 L1459.35,3334.69z M1371.33,3348.17c-2.48,8.92,2.75,18.17,11.67,20.65c8.92,2.48,18.17-2.75,20.65-11.67L1371.33,3348.17z M867.36,3885.54c237.64-131.52,592.07-221.01,949,25.48l19.06-27.6c-371.35-256.44-740.42-162.21-984.3-27.23L867.36,3885.54z M1883.93,3785.19c-7.38,28.29-11.61,43.76-19.83,56.85c-7.88,12.54-20.33,24.1-47.15,41l17.89,28.37 c28.28-17.83,45.78-32.63,57.66-51.53c11.54-18.36,16.89-39.42,23.89-66.23L1883.93,3785.19z M1916.93,3789.28 c-0.62-76.61-22.81-185.58-88.56-275.88c-66.36-91.14-176.22-161.95-348.65-161.95V3385c161.76,0,261.52,65.72,321.54,148.15 c60.63,83.27,81.56,184.89,82.14,256.41L1916.93,3789.28z M1615.74,3662.01c95.52,24.26,188.99,69.6,273.68,140.28l21.49-25.75 c-88.67-74.02-186.72-121.59-286.91-147.04L1615.74,3662.01z M1619.86,3645.76c16.74,1.05,16.74,1.05,16.74,1.05c0,0,0,0,0-0.01 c0,0,0-0.01,0-0.02c0-0.01,0-0.03,0-0.05c0-0.04,0-0.1,0.01-0.17c0.01-0.14,0.02-0.34,0.03-0.58c0.03-0.5,0.06-1.21,0.1-2.13 c0.08-1.84,0.16-4.5,0.22-7.92c0.11-6.83,0.11-16.67-0.35-28.94c-0.93-24.51-3.7-58.81-11.09-98.11l-32.96,6.2 c7.03,37.36,9.66,69.96,10.54,93.18c0.44,11.6,0.44,20.83,0.33,27.1c-0.06,3.14-0.13,5.53-0.2,7.12c-0.03,0.79-0.06,1.38-0.08,1.76 c-0.01,0.19-0.02,0.32-0.02,0.4c0,0.04,0,0.07,0,0.08c0,0,0,0.01,0,0.01c0,0,0,0,0,0v0 C1603.13,3644.71,1603.13,3644.7,1619.86,3645.76z M1624.92,3506.57c-10.35-30.43-31.16-54.09-55.38-74.38 c-24.01-20.11-53.03-38.22-80.59-56.39l-18.47,28c28.74,18.96,55.41,35.59,77.51,54.11c21.88,18.33,37.59,37.2,45.17,59.47 L1624.92,3506.57z M874.69,3877.39c30.96-73.38,72.5-107.78,95.3-133.42l-25.06-22.28c-20.32,22.85-67.41,62.73-101.14,142.67 L874.69,3877.39z M967.42,3746.32c22.4-16.52,45.26-27.75,77.05-41.72l-13.5-30.7c-32.24,14.18-57.94,26.61-83.46,45.44 L967.42,3746.32z M974.21,3733.6c2.67-57.99,24.85-148.81,85.72-224.75c60.29-75.21,159.46-137.03,319.16-137.03v-33.54 c-169.7,0-278.56,66.3-345.33,149.59c-66.2,82.57-90.13,180.64-93.06,244.18L974.21,3733.6z M1044.47,3704.6 c51.34-22.57,118.53-43.55,205.3-56.26l-4.86-33.18c-89.58,13.12-159.7,34.89-213.94,58.74L1044.47,3704.6z M1249.77,3648.34 c108.09-15.83,241.57-17.93,365.97,13.67l8.26-32.51c-129.85-32.98-268.01-30.61-379.09-14.35L1249.77,3648.34z M1247.34,3631.75 c16.76,0.47,16.76,0.47,16.76,0.47s0,0,0,0c0,0,0-0.01,0-0.01c0-0.01,0-0.03,0-0.06c0-0.06,0-0.15,0.01-0.26 c0.01-0.24,0.02-0.59,0.03-1.06c0.03-0.94,0.08-2.34,0.15-4.14c0.14-3.59,0.36-8.76,0.68-15.06c0.66-12.61,1.73-29.65,3.43-47.45 c1.7-17.87,4-36.18,7.04-51.43c1.52-7.63,3.17-14.21,4.91-19.44c1.84-5.5,3.4-8.35,4.23-9.44l-26.58-20.45 c-4.24,5.51-7.22,12.54-9.47,19.28c-2.34,7.02-4.31,15.07-5.98,23.49c-3.36,16.86-5.78,36.43-7.53,54.8 c-1.76,18.43-2.87,35.98-3.54,48.9c-0.34,6.47-0.56,11.79-0.7,15.51c-0.07,1.86-0.12,3.32-0.16,4.32c-0.01,0.5-0.03,0.89-0.04,1.15 c0,0.13-0.01,0.23-0.01,0.3c0,0.04,0,0.06,0,0.08c0,0.01,0,0.02,0,0.02c0,0,0,0,0,0 C1230.57,3631.28,1230.57,3631.28,1247.34,3631.75z M1284.59,3483.86c8.24-10.72,27.49-25.41,48.12-39.58 c9.96-6.84,19.55-13.11,27.5-18.38c7.24-4.8,14.56-9.65,18.13-12.87l-22.44-24.93c0,0-0.09,0.08-0.33,0.27 c-0.23,0.18-0.53,0.42-0.93,0.72c-0.8,0.6-1.84,1.34-3.13,2.24c-2.59,1.8-5.89,4-9.82,6.6c-7.75,5.13-17.71,11.64-27.98,18.7 c-19.81,13.61-43.69,31.15-55.72,46.78L1284.59,3483.86z M1408.71,3420.46c24.91,6.01,49.22-5.68,62.97-23.85 c14.29-18.87,18.37-46.13,1.63-71.23l-27.91,18.6c8.02,12.03,6.11,23.7-0.46,32.38c-7.11,9.39-18.54,13.86-28.36,11.49 L1408.71,3420.46z M1473.31,3325.38c-5.33-7.99-13.83-13.41-22.11-16.65c-8.58-3.35-18.62-5.05-28.8-4.24 c-10.26,0.82-21.09,4.23-30.51,11.58c-9.53,7.44-16.69,18.2-20.55,32.09l32.32,8.98c2.13-7.68,5.55-12.04,8.87-14.63 c3.43-2.68,7.72-4.21,12.53-4.59c4.89-0.39,9.87,0.46,13.95,2.05c4.36,1.7,6.15,3.62,6.41,4.01L1473.31,3325.38z"/>
  <rect x="-4.83" y="1242.19" class="st5" width="2674.23" height="2883.06"/>
</svg>