<?xml version="1.0" encoding="UTF-8"?>
<svg id="_Слой_1" data-name="Слой_1" xmlns="http://www.w3.org/2000/svg" version="1.1" viewBox="50 90 1100 1580">
  <!-- Generator: Adobe Illustrator 30.2.1, SVG Export Plug-In . SVG Version: 2.1.1 Build 1)  -->
  <defs>
    <style>
      .st0 {
        fill: #fedd39;
      }

      .st1 {
        stroke-width: 17px;
      }

      .st1, .st2, .st3 {
        fill: none;
      }

      .st1, .st3 {
        stroke: #ee7414;
        stroke-linecap: round;
        stroke-linejoin: round;
      }

      .st4 {
        fill: #ee7414;
      }

      .st5 {
        fill: #274999;
      }

      .st3 {
        stroke-width: 20px;
      }
    </style>
  </defs>
  <path class="st4" d="M1090.11,867.11c-23.21,79.58-68.36,151.44-130.54,207.79-62.18,56.34-139.02,95.01-222.17,111.81l-6.23-29.26c77.66-15.69,149.43-51.81,207.51-104.43,58.08-52.63,100.24-119.75,121.92-194.08l29.51,8.17Z"/>
  <path class="st4" d="M465.73,1161.89c-85.33-34.31-158.24-92.6-209.44-167.44-51.19-74.84-78.35-162.83-78.01-252.77l30.67.11c-.32,84,25.05,166.19,72.86,236.09,47.82,69.9,115.91,124.35,195.62,156.39l-11.7,27.62Z"/>
  <path class="st0" d="M683.75,1131.93c4.86-2.09,10.5.15,12.59,5.01s-.15,10.5-5.01,12.59l-7.58-17.6ZM665.08,1088.17c4.98-1.79,10.47.79,12.26,5.77s-.8,10.47-5.78,12.26l-6.48-18.03ZM649.95,1238.65c-.83-5.23,2.73-10.14,7.96-10.97,5.22-.83,10.14,2.73,10.97,7.96l-18.93,3.01ZM603.02,1253.12c-1.86-4.95.64-10.48,5.59-12.34s10.48.64,12.34,5.59l-17.93,6.75ZM488.83,1291.53c-.83-5.22,2.73-10.14,7.96-10.97,5.22-.83,10.14,2.73,10.97,7.96l-18.93,3.01ZM444.58,1297.77c-.38-5.28,3.6-9.86,8.88-10.24,5.28-.37,9.86,3.6,10.24,8.88l-19.12,1.36ZM576.51,1193.55c-2.12,4.85-7.77,7.06-12.62,4.95-4.85-2.12-7.06-7.77-4.95-12.62l17.57,7.67ZM534.21,1177.87c-.89,5.22-5.85,8.72-11.06,7.82-5.22-.89-8.72-5.85-7.83-11.06l18.89,3.24ZM527.14,1458.72l8.13,5.08-10.16,16.25-8.13-5.08,10.16-16.25ZM494.47,1491.09c.5,5.27-3.36,9.95-8.63,10.45s-9.95-3.36-10.45-8.63l19.08-1.82ZM691.34,1149.53c-19.31,8.32-36.87-3.89-43.88-17.63-3.63-7.13-5.24-15.91-2.54-24.36,2.81-8.79,9.77-15.65,20.15-19.38l6.48,18.03c-5.7,2.05-7.66,4.94-8.38,7.18-.82,2.57-.54,6.08,1.36,9.82,4.07,7.98,12.2,11.76,19.22,8.73l7.59,17.61ZM668.88,1235.64c3.44,21.59-7.36,38.44-23.77,42.93-16.54,4.53-34.28-4.69-42.09-25.44l17.94-6.75c4.95,13.15,13.72,15.18,19.1,13.71,5.51-1.51,12.05-7.91,9.9-21.43l18.92-3.02ZM507.76,1288.52c3.59,22.54-10.02,38.82-26.64,41.97-8.2,1.55-17.11-.16-24.24-6.02-7.17-5.9-11.48-15.13-12.3-26.7l19.11-1.36c.54,7.57,3.13,11.42,5.37,13.27,2.28,1.88,5.28,2.59,8.48,1.99,6.17-1.17,13.28-7.56,11.28-20.13l18.94-3.02ZM558.94,1185.88c4.02-9.22-.93-17.17-8.59-20.1-3.71-1.42-7.11-1.18-9.55.16-2.25,1.24-5.29,4.3-6.6,11.93l-18.89-3.24c2.05-11.92,7.72-20.79,16.25-25.48,8.33-4.58,17.76-4.28,25.63-1.27,15.49,5.92,28.66,24.24,19.31,45.67l-17.56-7.67ZM516.98,1474.97s-.37-.22-1.32-.41c-.91-.19-2.1-.3-3.52-.27-2.88.08-6.15.78-9.1,2.14-2.93,1.36-5.21,3.22-6.65,5.43-1.37,2.09-2.33,4.99-1.92,9.23l-19.08,1.82c-.79-8.33,1.09-15.62,4.96-21.54,3.8-5.8,9.16-9.78,14.62-12.32,5.44-2.53,11.3-3.77,16.65-3.92,5.11-.14,10.91.7,15.52,3.59l-10.16,16.25Z"/>
  <path class="st0" d="M752.01,1067l-14.35-.81,14.35.81ZM659.93,1584.85c.98-7.88,8.17-13.46,16.04-12.48,7.88.98,13.47,8.17,12.48,16.05l-28.52-3.57ZM589.2,1635.34l-2.93-14.07c4.09-.85,8.36.12,11.68,2.66l-8.75,11.41ZM526.43,1600.09l1.2-14.32c6.28.52,11.48,5.07,12.84,11.23l-14.04,3.09ZM462.1,1541.92l3.58-13.92c6,1.54,10.34,6.76,10.76,12.94l-14.34.98ZM416.7,1478.13l9.04-11.18c4.16,3.36,6.1,8.75,5.05,13.99l-14.09-2.81ZM392.4,1382.51l10.12-10.21c4.54,4.5,5.57,11.45,2.52,17.06l-12.64-6.85ZM389.57,1292.27l13.61-4.64c1.65,4.84.6,10.2-2.76,14.06l-10.85-9.42ZM412.02,1230.55l14.37-.18c.06,5.2-2.69,10.03-7.19,12.63l-7.18-12.45ZM467.49,1146.39l14.11,2.75c-1.1,5.65-5.46,10.1-11.09,11.31l-3.02-14.06ZM528.37,1093.88l13.4,5.21c-2.13,5.47-7.37,9.1-13.24,9.16l-.16-14.37ZM608.98,1031.12c7.93-.38,14.67,5.74,15.05,13.66.38,7.93-5.73,14.67-13.66,15.05l-1.39-28.71ZM736.08,1054.53c-1.83-7.73,2.96-15.47,10.68-17.29,7.73-1.82,15.47,2.96,17.29,10.69l-27.97,6.6ZM688.45,1588.42c-2.3,18.38-2.5,34.95-3.08,49.57-.28,7.12-.66,14.05-1.54,20.12-.85,5.85-2.34,12.44-5.75,18.02-3.89,6.36-10.1,11.06-18.49,12.13-7.31.94-14.74-1.1-21.62-4-13.82-5.83-32.42-18.29-57.51-37.52l17.49-22.82c25.19,19.3,41.16,29.61,51.2,33.85,5.05,2.13,6.88,1.96,6.78,1.97-.26.03-.89.19-1.58.65-.65.44-.87.84-.8.73.33-.54,1.15-2.46,1.83-7.14.65-4.46.99-10.08,1.27-17.14.54-13.74.79-32.06,3.28-52.01l28.52,3.59ZM592.14,1649.41c-11.6,2.42-28.63.56-43.61-5.81-15.26-6.5-31.44-19.07-36.14-40.41l28.07-6.2c1.98,8.99,8.98,15.74,19.33,20.15,10.63,4.53,21.65,5.13,26.48,4.12l5.87,28.15ZM526.43,1600.09q-1.2,14.32-1.21,14.32h-.04s-.05,0-.08,0c-.06,0-.14,0-.23-.02-.18-.02-.42-.04-.72-.08-.59-.06-1.4-.17-2.39-.31-1.99-.29-4.75-.76-8.04-1.51-6.53-1.48-15.41-4.11-24.57-8.74-18.52-9.37-39.1-27.65-41.38-60.85l28.68-1.96c1.36,19.91,12.94,30.71,25.67,37.15,6.48,3.27,12.99,5.23,17.96,6.36,2.46.56,4.47.9,5.81,1.09.67.1,1.17.16,1.47.19.15.02.25.03.3.03h.03-.05s-.02.02-1.21,14.34ZM462.1,1541.92q-3.58,13.92-3.59,13.92h-.01s-.02,0-.03,0c-.02,0-.05,0-.08-.02-.06-.02-.13-.04-.22-.06-.17-.05-.4-.11-.67-.19-.55-.16-1.29-.38-2.2-.68-1.81-.59-4.31-1.47-7.24-2.7-5.8-2.43-13.6-6.33-21.18-12.21-15.56-12.05-30.6-33.05-24.28-64.66l28.19,5.63c-3.59,17.95,4.08,28.85,13.69,36.3,5.01,3.88,10.42,6.63,14.68,8.42,2.1.88,3.85,1.5,5.02,1.88.58.19,1.02.32,1.28.4.13.04.21.06.25.07.02,0,.02,0,.02,0h-.05s0,0-3.58,13.91ZM416.7,1478.13q-9.04,11.17-9.05,11.17h-.01s-.02-.02-.03-.03c-.02-.02-.04-.03-.07-.06-.05-.04-.11-.1-.19-.16-.15-.13-.35-.29-.6-.51-.49-.42-1.16-1.01-1.98-1.76-1.63-1.49-3.86-3.64-6.41-6.37-5.06-5.42-11.56-13.36-17.1-23.3-11.19-20.06-18.89-49.38-1.49-81.47l25.27,13.7c-11.23,20.72-6.79,39.21,1.33,53.76,4.11,7.37,9.05,13.44,13.02,17.69,1.97,2.11,3.65,3.72,4.8,4.78.57.52,1.01.91,1.28,1.14.13.11.23.19.27.23.02.02.04.03.03.03h-.01s-.01,0-.01-.02h-.01s0,0-9.04,11.18ZM392.4,1382.51q-10.11,10.21-10.12,10.2h-.01s-.02-.03-.03-.04l-.06-.06c-.05-.05-.11-.11-.18-.18-.14-.14-.31-.33-.53-.55-.43-.45-1-1.08-1.68-1.86-1.37-1.56-3.2-3.79-5.22-6.59-4.01-5.56-8.97-13.67-12.46-23.69-7.23-20.76-7.69-48.92,16.61-76.89l21.7,18.85c-16.52,19.01-15.56,35.97-11.17,48.58,2.32,6.67,5.73,12.31,8.62,16.32,1.43,1.98,2.69,3.5,3.56,4.49.43.49.75.84.95,1.05.1.1.16.17.18.19.01,0,.01.02.01,0,0,0-.01,0-.02-.02h-.01s-.01-.02-.01-.02t-10.13,10.21ZM389.57,1292.27q-13.61,4.64-13.61,4.62h0s-.01-.03-.01-.04c-.01-.02-.02-.05-.03-.07-.02-.06-.04-.12-.06-.19-.05-.15-.11-.34-.18-.57-.14-.46-.32-1.07-.52-1.82-.4-1.5-.9-3.58-1.34-6.11-.89-5.02-1.63-12.05-.97-20.01,1.36-16.3,8.8-36.6,32-49.97l14.36,24.9c-13.15,7.58-16.93,18.15-17.71,27.46-.4,4.86.05,9.32.63,12.6.29,1.62.59,2.89.81,3.7.11.4.19.69.24.84.02.08.04.12.04.12v-.02s-.01-.02-.02-.03t-.01-.02h0s-.02-.02-13.62,4.61ZM412.02,1230.55q-14.37.18-14.37.17h0v-1.17c.01-.66.03-1.58.08-2.73.1-2.29.31-5.5.75-9.35.88-7.66,2.71-18.15,6.57-29.2,7.69-22,24.38-48.41,59.42-55.93l6.03,28.11c-21.32,4.57-32.35,20.24-38.31,37.3-2.96,8.48-4.43,16.76-5.15,22.99-.35,3.09-.52,5.61-.59,7.31-.04.85-.05,1.49-.06,1.89v.47h0v-.02s.01-.01-14.37.16ZM467.49,1146.39q-14.11-2.75-14.11-2.76h0s0-.03.01-.04c0-.02.01-.05.02-.08.01-.06.03-.13.05-.22.04-.17.08-.39.14-.66.12-.53.29-1.26.53-2.14.47-1.76,1.18-4.18,2.2-7.05,2.03-5.69,5.38-13.38,10.68-21.17,10.79-15.88,29.97-32.41,61.22-32.75l.32,28.75c-19.53.21-30.8,9.93-37.76,20.17-3.58,5.26-5.93,10.6-7.38,14.67-.72,2.01-1.19,3.65-1.48,4.73-.14.54-.23.93-.29,1.16-.02.11-.04.18-.05.21t0,0v-.04h0s0-.03-14.1-2.78ZM528.37,1093.88q-13.4-5.21-13.39-5.23v-.02s.01-.02.02-.04c.01-.03.02-.06.03-.09.03-.06.06-.14.09-.23.07-.17.16-.39.27-.65.22-.51.53-1.19.92-2.01.8-1.63,1.96-3.83,3.55-6.42,3.19-5.17,8.14-11.95,15.38-18.81,14.68-13.9,38.2-27.56,73.72-29.28l1.39,28.71c-28.16,1.36-45.28,11.91-55.34,21.43-5.13,4.86-8.56,9.6-10.67,13.02-1.05,1.71-1.76,3.07-2.18,3.93-.21.43-.34.73-.41.88-.03.08-.05.12-.05.11,0,0,0,0,.01-.03,0,0,.01-.02.01-.04,0,0,.01-.02.01-.03,0,0,0,0,.01,0t-13.37-5.19ZM737.66,1066.19c.08-1.35-.17-3.97-.67-7-.23-1.36-.46-2.56-.64-3.42-.09-.43-.16-.76-.21-.98-.02-.11-.04-.19-.05-.23,0-.02-.01-.04-.01-.04h0l13.99-3.3,13.99-3.3h0v.02s.01.02.01.04c.01.03.02.07.03.12.02.1.06.24.09.4.08.34.18.81.3,1.38.24,1.15.55,2.74.86,4.57.56,3.33,1.28,8.6,1.02,13.33l-28.71-1.59ZM766.36,1067.8c-2.11,37.61-9.04,103.24-15.85,160.23-3.41,28.56-6.81,55.1-9.59,75.05-1.39,9.97-2.63,18.37-3.65,24.58-.51,3.1-.98,5.76-1.39,7.84-.29,1.44-.85,4.26-1.78,6.44l-26.42-11.34c-.48,1.13-.44,1.51.01-.74.32-1.61.73-3.89,1.21-6.84.97-5.89,2.17-14.03,3.54-23.9,2.74-19.72,6.12-46.07,9.51-74.5,6.81-57,13.64-121.82,15.69-158.44l28.72,1.62Z"/>
  <path class="st1" d="M529.66,1376.69l132.67,70.06-114.98-60.72c-14.65-7.74-32.43-2.85-39.7,10.92-7.27,13.77-1.29,31.21,13.37,38.95l114.98,60.72-61.91-32.69c-14.65-7.74-32.43-2.85-39.7,10.92-7.27,13.77-1.29,31.21,13.37,38.95l150.35,79.4c58.62,30.95,129.72,11.39,158.8-43.69l9.9-18.74c13.38-25.34,16-55.15,7.32-83.37l-52.33-113.38c-29.94-48.03-84.11-79.18-93.69-42.05-17.98,4.95,35.93,34.74,39.49,51.24l2.4,29.01-134.58-67.24c-14.65-7.74-32.43-2.85-39.7,10.92-7.27,13.77-1.29,31.21,13.37,38.95l79.6,42.03-132.67-70.06c-14.65-7.74-32.43-2.85-39.7,10.92-7.3,13.77-1.32,31.21,13.34,38.95Z"/>
  <path class="st0" d="M737.7,1062.31c.48-7.92,7.29-13.96,15.22-13.48,7.92.48,13.96,7.29,13.48,15.21l-28.7-1.73ZM766.39,1064.05c-2.42,39.95-9.04,104.73-15.48,160.42-3.22,27.88-6.42,53.6-9.04,72.93-1.31,9.65-2.48,17.78-3.46,23.82-.48,3.01-.93,5.6-1.34,7.65-.29,1.46-.83,4.18-1.73,6.32l-26.49-11.16c-.45,1.06-.4,1.38.03-.76.31-1.55.7-3.76,1.16-6.62.92-5.69,2.06-13.55,3.35-23.11,2.59-19.08,5.76-44.6,8.97-72.37,6.43-55.61,12.97-119.74,15.34-158.85l28.69,1.73Z"/>
  <path class="st3" d="M117.19,639.14c53.5-5.59,99.66.48-28.75,69.47M88.45,708.62c-31.88,17.13-59.89,23.96,0,30.24M88.45,708.62v30.24M562.79,569.67c-103.55,122.46-329.41,169.19-474.34,169.19M562.79,570.87c-14.37,28.75-34.74,62.29-111.4,134.16-18.86,17.68,256.34,34.74,371.33-118.59,0,0,160.51,49.95,264.72,297.06,57.5-59.89,55.1-212.02,20.36-313.83M368.74,803.25c0,56.3,89.84,103.01,141.34,28.75M496.91,1008.08c47.52,34.34,194.05,73.07,298.26-10.78M795.17,955.37c0,19.17,12.46,42.16,33.54,52.7M759.23,803.25c0,56.3,99.42,110.2,143.74,28.75"/>
  <path class="st5" d="M75.27,663.1l-15.45-6.52c-2.78,6.59-1.08,14.21,4.24,18.99s13.08,5.66,19.33,2.2l-8.12-14.67ZM1041.92,689.45l-9.53,13.8c5.52,3.81,12.79,3.97,18.47.39l-8.94-14.19ZM253.75,481.48l-6.75-15.35,6.75,15.35ZM1116.19,581.65l16.23,4.23c.37-1.43.55-2.9.54-4.37l-16.77.14ZM695.75,143.69c-9.26,0-16.77,7.51-16.77,16.77s7.51,16.77,16.77,16.77v-33.54ZM835.89,437.99l-4.13,16.25,4.13-16.25ZM704.98,168.02c-7.73-5.1-18.13-2.97-23.23,4.77-5.1,7.73-2.97,18.13,4.77,23.23l18.46-28ZM825.07,304.2l16.48-3.1-.22-1.17-.38-1.13-15.88,5.4ZM595.13,164.05c9.26,0,16.77-7.51,16.77-16.77s-7.51-16.77-16.77-16.77v33.54ZM463.37,423.98l2.43,16.59-2.43-16.59ZM594.37,205.26c6.89-6.2,7.44-16.8,1.25-23.68-6.2-6.88-16.8-7.44-23.68-1.25l22.43,24.93ZM632.6,180.09c-9-2.17-18.06,3.36-20.24,12.37-2.17,9,3.36,18.06,12.37,20.24l7.87-32.61ZM675.38,126.92l13.95-9.3-13.95,9.3ZM587.36,140.4c-2.48,8.92,2.75,18.17,11.67,20.65s18.17-2.75,20.65-11.67l-32.32-8.98ZM83.39,677.77c237.64-131.52,592.07-221.01,949,25.48l19.06-27.6c-371.35-256.44-740.42-162.21-984.3-27.23l16.24,29.35ZM1099.96,577.42c-7.38,28.29-11.61,43.76-19.83,56.85-7.88,12.54-20.33,24.1-47.15,41l17.89,28.37c28.28-17.83,45.78-32.63,57.66-51.53,11.54-18.36,16.89-39.42,23.89-66.23l-32.46-8.46ZM1132.96,581.51c-.62-76.61-22.81-185.58-88.56-275.88-66.36-91.14-176.22-161.95-348.65-161.95v33.55c161.76,0,261.52,65.72,321.54,148.15,60.63,83.27,81.56,184.89,82.14,256.41l33.53-.28ZM831.77,454.24c95.52,24.26,188.99,69.6,273.68,140.28l21.49-25.75c-88.67-74.02-186.72-121.59-286.91-147.04l-8.26,32.51ZM835.89,437.99l16.74,1.05h0v-.08s0-.1.01-.17c.01-.14.02-.34.03-.58.03-.5.06-1.21.1-2.13.08-1.84.16-4.5.22-7.92.11-6.83.11-16.67-.35-28.94-.93-24.51-3.7-58.81-11.09-98.11l-32.96,6.2c7.03,37.36,9.66,69.96,10.54,93.18.44,11.6.44,20.83.33,27.1-.06,3.14-.13,5.53-.2,7.12-.03.79-.06,1.38-.08,1.76-.01.19-.02.32-.02.4v.08h0s0-.02,16.73,1.04ZM840.95,298.8c-10.35-30.43-31.16-54.09-55.38-74.38-24.01-20.11-53.03-38.22-80.59-56.39l-18.47,28c28.74,18.96,55.41,35.59,77.51,54.11,21.88,18.33,37.59,37.2,45.17,59.47l31.76-10.81ZM90.72,669.62c30.96-73.38,72.5-107.78,95.3-133.42l-25.06-22.28c-20.32,22.85-67.41,62.73-101.14,142.67l30.9,13.03ZM183.45,538.55c22.4-16.52,45.26-27.75,77.05-41.72l-13.5-30.7c-32.24,14.18-57.94,26.61-83.46,45.44l19.91,26.98ZM190.24,525.83c2.67-57.99,24.85-148.81,85.72-224.75,60.29-75.21,159.46-137.03,319.16-137.03v-33.54c-169.7,0-278.56,66.3-345.33,149.59-66.2,82.57-90.13,180.64-93.06,244.18l33.51,1.55ZM260.5,496.83c51.34-22.57,118.53-43.55,205.3-56.26l-4.86-33.18c-89.58,13.12-159.7,34.89-213.94,58.74l13.5,30.7ZM465.8,440.57c108.09-15.83,241.57-17.93,365.97,13.67l8.26-32.51c-129.85-32.98-268.01-30.61-379.09-14.35l4.86,33.19ZM463.37,423.98l16.76.47h0v-.07c0-.06,0-.15.01-.26.01-.24.02-.59.03-1.06.03-.94.08-2.34.15-4.14.14-3.59.36-8.76.68-15.06.66-12.61,1.73-29.65,3.43-47.45,1.7-17.87,4-36.18,7.04-51.43,1.52-7.63,3.17-14.21,4.91-19.44,1.84-5.5,3.4-8.35,4.23-9.44l-26.58-20.45c-4.24,5.51-7.22,12.54-9.47,19.28-2.34,7.02-4.31,15.07-5.98,23.49-3.36,16.86-5.78,36.43-7.53,54.8-1.76,18.43-2.87,35.98-3.54,48.9-.34,6.47-.56,11.79-.7,15.51-.07,1.86-.12,3.32-.16,4.32-.01.5-.03.89-.04,1.15,0,.13-.01.23-.01.3v.1h0s0,0,16.77.48ZM500.62,276.09c8.24-10.72,27.49-25.41,48.12-39.58,9.96-6.84,19.55-13.11,27.5-18.38,7.24-4.8,14.56-9.65,18.13-12.87l-22.44-24.93s-.09.08-.33.27c-.23.18-.53.42-.93.72-.8.6-1.84,1.34-3.13,2.24-2.59,1.8-5.89,4-9.82,6.6-7.75,5.13-17.71,11.64-27.98,18.7-19.81,13.61-43.69,31.15-55.72,46.78l26.6,20.45ZM624.74,212.69c24.91,6.01,49.22-5.68,62.97-23.85,14.29-18.87,18.37-46.13,1.63-71.23l-27.91,18.6c8.02,12.03,6.11,23.7-.46,32.38-7.11,9.39-18.54,13.86-28.36,11.49l-7.87,32.61ZM689.34,117.61c-5.33-7.99-13.83-13.41-22.11-16.65-8.58-3.35-18.62-5.05-28.8-4.24-10.26.82-21.09,4.23-30.51,11.58-9.53,7.44-16.69,18.2-20.55,32.09l32.32,8.98c2.13-7.68,5.55-12.04,8.87-14.63,3.43-2.68,7.72-4.21,12.53-4.59,4.89-.39,9.87.46,13.95,2.05,4.36,1.7,6.15,3.62,6.41,4.01l27.89-18.6Z"/>
  <rect class="st2" x="-788.8" y="-1965.58" width="2674.23" height="2883.06"/>
</svg>