<svg width="512" height="512" version="1.1" xmlns="http://www.w3.org/2000/svg" desc="Created with imagetracer.js version 1.2.6" ><path fill="rgb(0,0,0)" stroke="rgb(0,0,0)" stroke-width="1" opacity="0" d="M 0 0 L 511.5 0 L 512 0.5 L 512 160.5 L 511 160.5 L 511 153.5 L 506 130.5 Q 500.4 111.6 492 95.5 Q 475.3 64.7 449.5 43 Q 423 20 385.5 8 L 369.5 4 L 364.5 4 L 357.5 2 L 349.5 2 L 348.5 1 L 318.5 1 L 317.5 2 L 309.5 2 L 288.5 6 L 255.5 18 Q 223.7 33.7 201 58.5 Q 178.1 83.1 165 117.5 L 161 129.5 L 156 152.5 L 155 171.5 L 154 172.5 L 154 186.5 L 155 187.5 L 155 200.5 L 156 201.5 L 158 218.5 Q 162.4 238.1 170 254.5 Q 187.6 291.9 217.5 317 Q 244.3 340.2 282.5 352 L 311.5 358 L 344.5 359 L 345.5 358 L 355.5 358 L 356.5 357 L 368.5 356 L 384.5 352 L 408.5 343 Q 444.5 326 469 297.5 Q 487.2 276.7 499 249.5 L 509 217.5 L 511.5 199 L 512 512 L 0.5 512 L 0 511.5 L 0 452.5 L 1 452.5 L 3 456.5 L 54.5 508 Q 59 512.5 69.5 511 L 73.5 509 L 198 384.5 L 200 378.5 L 200 373.5 L 197 366.5 L 144.5 314 Q 140.4 310.1 131.5 311 L 124.5 314 L 105 333.5 L 105 335.5 L 150 380.5 L 150 384.5 L 73.5 461 L 70.5 462 L 22.5 416 L 2 436.5 L 0.5 440 L 0 0 Z M 179 289 L 156 312 L 156 314 L 198 355 L 222 332 L 206 318 L 188 300 L 182 291 L 179 289 Z M 97 342 L 31 409 L 72 448 L 137 383 L 97 342 Z " /><path fill="rgb(0,0,0)" stroke="rgb(0,0,0)" stroke-width="1" opacity="0" d="M 319.5 39 L 347.5 39 L 348.5 40 L 360.5 41 L 384.5 48 Q 419.7 62.3 442 89.5 Q 458.8 109.2 468 136.5 L 474 164.5 L 474 194.5 L 470 216.5 Q 465.4 232.9 458 246.5 Q 445.2 270.2 425.5 287 Q 403.4 306.4 371.5 316 L 353.5 320 L 322.5 321 L 321.5 320 L 307.5 319 L 291.5 315 L 267.5 305 Q 243.2 291.8 226 271.5 Q 210.3 253.7 201 229.5 L 194 203.5 L 193 186.5 L 192 185.5 L 192 174.5 L 193 173.5 L 193 162.5 L 196 146.5 L 203 125.5 L 212 107.5 L 233 80 L 252.5 64 L 277.5 50 L 297.5 43 L 319.5 39 Z M 333 68 L 332 69 L 313 70 L 295 75 Q 275 82 261 95 Q 254 99 251 107 L 252 115 L 261 121 Q 267 122 270 119 Q 281 105 300 98 L 321 92 L 346 92 L 368 98 L 378 103 L 398 119 L 403 121 L 411 119 L 415 114 Q 417 105 413 102 Q 398 86 378 77 L 355 70 L 333 68 Z " /><path fill="rgb(255,105,31)" stroke="rgb(255,105,31)" stroke-width="1" opacity="0.49411764705882355" d="M 318.5 1 L 349 1.5 L 318.5 2 L 318.5 1 Z " /><path fill="rgb(255,105,31)" stroke="rgb(255,105,31)" stroke-width="1" opacity="0.49411764705882355" d="M 309.5 2 L 315 2.5 L 309.5 3 L 309.5 2 Z " /><path fill="rgb(255,105,31)" stroke="rgb(255,105,31)" stroke-width="1" opacity="0.49411764705882355" d="M 352.5 2 L 358 2.5 L 352.5 3 L 352.5 2 Z " /><path fill="rgb(255,105,31)" stroke="rgb(255,105,31)" stroke-width="1" opacity="0.49411764705882355" d="M 302.5 3 L 307 3.5 L 302.5 4 L 302.5 3 Z " /><path fill="rgb(255,105,31)" stroke="rgb(255,105,31)" stroke-width="1" opacity="0.49411764705882355" d="M 360.5 3 L 364 3.5 L 360.5 4 L 360.5 3 Z " /><path fill="rgb(255,105,31)" stroke="rgb(255,105,31)" stroke-width="1" opacity="0.49411764705882355" d="M 297.5 4 L 301 4.5 L 297.5 5 L 297.5 4 Z " /><path fill="rgb(255,105,31)" stroke="rgb(255,105,31)" stroke-width="1" opacity="0.49411764705882355" d="M 366.5 4 L 370 4.5 L 366.5 5 L 366.5 4 Z " /><path fill="rgb(255,105,31)" stroke="rgb(255,105,31)" stroke-width="1" opacity="0.49411764705882355" d="M 292.5 5 L 296 5.5 L 285.5 8 L 285.5 7 L 292.5 5 Z " /><path fill="rgb(255,105,31)" stroke="rgb(255,105,31)" stroke-width="1" opacity="0.49411764705882355" d="M 371.5 5 L 374 5.5 L 371.5 6 L 371.5 5 Z " /><path fill="rgb(255,105,31)" stroke="rgb(255,105,31)" stroke-width="1" opacity="0.49411764705882355" d="M 375.5 6 L 382 7.5 L 379.5 8 L 375.5 7 L 375.5 6 Z " /><path fill="rgb(255,105,31)" stroke="rgb(255,105,31)" stroke-width="1" opacity="0.49411764705882355" d="M 281.5 8 L 284 8.5 L 281.5 9 L 281.5 8 Z " /><path fill="rgb(255,105,31)" stroke="rgb(255,105,31)" stroke-width="1" opacity="0.49411764705882355" d="M 383.5 8 L 397 12.5 L 395.5 13 L 383.5 9 L 383.5 8 Z " /><path fill="rgb(255,105,31)" stroke="rgb(255,105,31)" stroke-width="1" opacity="0.49411764705882355" d="M 278.5 9 L 280 9.5 L 258.5 18 L 258.5 17 L 278.5 9 Z " /><path fill="rgb(255,105,31)" stroke="rgb(255,105,31)" stroke-width="1" opacity="0.49411764705882355" d="M 398.5 13 L 402 14.5 L 400.5 15 L 398.5 13 Z " /><path fill="rgb(255,105,31)" stroke="rgb(255,105,31)" stroke-width="1" opacity="0.49411764705882355" d="M 403.5 15 L 411 18.5 L 409.5 19 L 403.5 16 L 403.5 15 Z " /><path fill="rgb(255,105,31)" stroke="rgb(255,105,31)" stroke-width="1" opacity="0.49411764705882355" d="M 255.5 18 L 257 18.5 L 248.5 23 L 249.5 21 L 255.5 18 Z " /><path fill="rgb(255,105,31)" stroke="rgb(255,105,31)" stroke-width="1" opacity="0.49411764705882355" d="M 416.5 21 Q 448.9 37.6 471 64.5 Q 486 82 496 104.5 L 495 104.5 Q 478.4 68.1 449.5 44 Q 435.8 31.2 417.5 23 L 416.5 21 Z " /><path fill="rgb(255,105,31)" stroke="rgb(255,105,31)" stroke-width="1" opacity="0.49411764705882355" d="M 246.5 23 L 245.5 25 L 241.5 27 L 242.5 25 L 246.5 23 Z " /><path fill="rgb(255,105,31)" stroke="rgb(255,105,31)" stroke-width="1" opacity="0.49411764705882355" d="M 239.5 27 L 238.5 29 Q 218.9 40.4 204 56.5 L 186.5 78 L 188 75.5 Q 197.9 59.9 211.5 48 L 239.5 27 Z " /><path fill="rgb(255,105,31)" stroke="rgb(255,105,31)" stroke-width="1" opacity="0.49411764705882355" d="M 322.5 38 L 345 38.5 L 322.5 39 L 322.5 38 Z " /><path fill="rgb(255,105,31)" stroke="rgb(255,105,31)" stroke-width="1" opacity="0.49411764705882355" d="M 313.5 39 L 319 39.5 L 313.5 40 L 313.5 39 Z " /><path fill="rgb(255,105,31)" stroke="rgb(255,105,31)" stroke-width="1" opacity="0.49411764705882355" d="M 348.5 39 L 354 39.5 L 348.5 40 L 348.5 39 Z " /><path fill="rgb(255,105,31)" stroke="rgb(255,105,31)" stroke-width="1" opacity="0.49411764705882355" d="M 307.5 40 L 312 40.5 L 307.5 41 L 307.5 40 Z " /><path fill="rgb(255,105,31)" stroke="rgb(255,105,31)" stroke-width="1" opacity="0.49411764705882355" d="M 355.5 40 L 360 40.5 L 355.5 41 L 355.5 40 Z " /><path fill="rgb(255,105,31)" stroke="rgb(255,105,31)" stroke-width="1" opacity="0.49411764705882355" d="M 302.5 41 L 306 41.5 L 302.5 42 L 302.5 41 Z " /><path fill="rgb(255,105,31)" stroke="rgb(255,105,31)" stroke-width="1" opacity="0.49411764705882355" d="M 361.5 41 Q 374.6 42.4 384 47.5 L 382.5 48 Q 373.8 43.2 361.5 42 L 361.5 41 Z " /><path fill="rgb(255,105,31)" stroke="rgb(255,105,31)" stroke-width="1" opacity="0.49411764705882355" d="M 298.5 42 L 301 42.5 L 298.5 43 L 298.5 42 Z " /><path fill="rgb(255,105,31)" stroke="rgb(255,105,31)" stroke-width="1" opacity="0.49411764705882355" d="M 294.5 43 L 297 43.5 L 288.5 46 L 288.5 45 L 294.5 43 Z " /><path fill="rgb(255,105,31)" stroke="rgb(255,105,31)" stroke-width="1" opacity="0.49411764705882355" d="M 285.5 46 L 287 46.5 L 278.5 50 L 278.5 49 L 285.5 46 Z " /><path fill="rgb(255,105,31)" stroke="rgb(255,105,31)" stroke-width="1" opacity="0.49411764705882355" d="M 385.5 48 Q 415.2 59.3 435 80.5 Q 447.2 92.8 456 108.5 L 454 107.5 Q 442.1 85.9 423.5 71 L 411.5 62 L 385.5 49 L 385.5 48 Z " /><path fill="rgb(255,105,31)" stroke="rgb(255,105,31)" stroke-width="1" opacity="0.49411764705882355" d="M 275.5 50 L 277 50.5 L 264.5 57 L 265.5 55 L 275.5 50 Z " /><path fill="rgb(255,105,31)" stroke="rgb(255,105,31)" stroke-width="1" opacity="0.49411764705882355" d="M 262.5 57 L 261.5 59 L 252.5 64 L 233 80 L 212.5 107 L 213 105.5 Q 222.2 89.2 235.5 77 Q 247.2 65.2 262.5 57 Z " /><path fill="rgb(255,105,31)" stroke="rgb(255,105,31)" stroke-width="1" opacity="0.49411764705882355" d="M 332.5 68 L 335 68.5 L 332.5 69 L 332.5 68 Z " /><path fill="rgb(255,105,31)" stroke="rgb(255,105,31)" stroke-width="1" opacity="0.49411764705882355" d="M 318.5 69 L 325 69.5 L 318.5 70 L 318.5 69 Z " /><path fill="rgb(255,105,31)" stroke="rgb(255,105,31)" stroke-width="1" opacity="0.49411764705882355" d="M 341.5 69 L 349 69.5 L 341.5 70 L 341.5 69 Z " /><path fill="rgb(255,105,31)" stroke="rgb(255,105,31)" stroke-width="1" opacity="0.49411764705882355" d="M 312.5 70 L 316 70.5 L 312.5 71 L 312.5 70 Z " /><path fill="rgb(255,105,31)" stroke="rgb(255,105,31)" stroke-width="1" opacity="0.49411764705882355" d="M 350.5 70 L 355 70.5 L 350.5 71 L 350.5 70 Z " /><path fill="rgb(255,105,31)" stroke="rgb(255,105,31)" stroke-width="1" opacity="0.49411764705882355" d="M 307.5 71 L 311 71.5 L 307.5 72 L 307.5 71 Z " /><path fill="rgb(255,105,31)" stroke="rgb(255,105,31)" stroke-width="1" opacity="0.49411764705882355" d="M 356.5 71 L 363 72.5 L 360.5 73 L 356.5 72 L 356.5 71 Z " /><path fill="rgb(255,105,31)" stroke="rgb(255,105,31)" stroke-width="1" opacity="0.49411764705882355" d="M 303.5 72 L 306 72.5 L 300.5 74 L 300.5 73 L 303.5 72 Z " /><path fill="rgb(255,105,31)" stroke="rgb(255,105,31)" stroke-width="1" opacity="0.49411764705882355" d="M 364.5 73 L 375 76.5 L 373.5 77 L 364.5 74 L 364.5 73 Z " /><path fill="rgb(255,105,31)" stroke="rgb(255,105,31)" stroke-width="1" opacity="0.49411764705882355" d="M 294.5 75 L 296 75.5 L 292.5 77 L 292.5 76 L 294.5 75 Z " /><path fill="rgb(255,105,31)" stroke="rgb(255,105,31)" stroke-width="1" opacity="0.49411764705882355" d="M 289.5 77 L 291 77.5 Q 268.9 86.4 254 102.5 Q 251.3 105.8 251.5 112 L 251 106.5 Q 254 99 260.5 95 Q 273.1 84.1 289.5 77 Z " /><path fill="rgb(255,105,31)" stroke="rgb(255,105,31)" stroke-width="1" opacity="0.49411764705882355" d="M 376.5 77 Q 398.1 85.9 413 101.5 L 415 106.5 L 414 106.5 L 410.5 100 L 398.5 90 L 376.5 78 L 376.5 77 Z " /><path fill="rgb(255,105,31)" stroke="rgb(255,105,31)" stroke-width="1" opacity="0.49411764705882355" d="M 185.5 79 L 184.5 81 L 185.5 79 Z " /><path fill="rgb(255,105,31)" stroke="rgb(255,105,31)" stroke-width="1" opacity="0.49411764705882355" d="M 183.5 82 L 183 83.5 L 179.5 89 L 180 87.5 L 183.5 82 Z " /><path fill="rgb(255,105,31)" stroke="rgb(255,105,31)" stroke-width="1" opacity="0.49411764705882355" d="M 178.5 90 L 178 91.5 L 169.5 109 L 169 107.5 L 178.5 90 Z " /><path fill="rgb(255,105,31)" stroke="rgb(255,105,31)" stroke-width="1" opacity="0.49411764705882355" d="M 322.5 91 L 345 91.5 L 322.5 92 L 322.5 91 Z " /><path fill="rgb(255,105,31)" stroke="rgb(255,105,31)" stroke-width="1" opacity="0.49411764705882355" d="M 316.5 92 L 320 92.5 L 316.5 93 L 316.5 92 Z " /><path fill="rgb(255,105,31)" stroke="rgb(255,105,31)" stroke-width="1" opacity="0.49411764705882355" d="M 346.5 92 L 351 92.5 L 346.5 93 L 346.5 92 Z " /><path fill="rgb(255,105,31)" stroke="rgb(255,105,31)" stroke-width="1" opacity="0.49411764705882355" d="M 311.5 93 L 315 93.5 L 308.5 95 L 308.5 94 L 311.5 93 Z " /><path fill="rgb(255,105,31)" stroke="rgb(255,105,31)" stroke-width="1" opacity="0.49411764705882355" d="M 352.5 93 L 355 93.5 L 352.5 94 L 352.5 93 Z " /><path fill="rgb(255,105,31)" stroke="rgb(255,105,31)" stroke-width="1" opacity="0.49411764705882355" d="M 356.5 94 L 367 97.5 L 365.5 98 L 356.5 95 L 356.5 94 Z " /><path fill="rgb(255,105,31)" stroke="rgb(255,105,31)" stroke-width="1" opacity="0.49411764705882355" d="M 302.5 96 L 304 96.5 Q 282.7 103.7 269.5 119 Q 266.8 121.8 260.5 121 L 258 119.5 L 259.5 119 Q 260.8 121.3 265.5 120 L 287.5 103 L 302.5 96 Z " /><path fill="rgb(255,105,31)" stroke="rgb(255,105,31)" stroke-width="1" opacity="0.49411764705882355" d="M 368.5 98 L 377.5 102 L 401 119.5 L 399.5 120 L 386.5 109 L 368.5 99 L 368.5 98 Z " /><path fill="rgb(255,105,31)" stroke="rgb(255,105,31)" stroke-width="1" opacity="0.49411764705882355" d="M 496.5 106 L 499 111.5 L 498 111.5 L 496.5 106 Z " /><path fill="rgb(255,105,31)" stroke="rgb(255,105,31)" stroke-width="1" opacity="0.49411764705882355" d="M 211.5 108 L 211 109.5 L 208.5 114 L 209 112.5 L 211.5 108 Z " /><path fill="rgb(255,105,31)" stroke="rgb(255,105,31)" stroke-width="1" opacity="0.49411764705882355" d="M 456.5 110 L 463 122.5 L 462 122.5 L 456.5 110 Z " /><path fill="rgb(255,105,31)" stroke="rgb(255,105,31)" stroke-width="1" opacity="0.49411764705882355" d="M 414.5 111 L 415 113.5 L 410.5 119 L 413 115.5 L 414.5 111 Z " /><path fill="rgb(255,105,31)" stroke="rgb(255,105,31)" stroke-width="1" opacity="0.49411764705882355" d="M 252.5 113 L 257 118.5 L 252 114.5 L 252.5 113 Z " /><path fill="rgb(255,105,31)" stroke="rgb(255,105,31)" stroke-width="1" opacity="0.49411764705882355" d="M 499.5 113 L 501 116.5 L 500 116.5 L 499.5 113 Z " /><path fill="rgb(255,105,31)" stroke="rgb(255,105,31)" stroke-width="1" opacity="0.49411764705882355" d="M 166.5 115 L 167 116.5 L 165.5 119 L 165 117.5 L 166.5 115 Z " /><path fill="rgb(255,105,31)" stroke="rgb(255,105,31)" stroke-width="1" opacity="0.49411764705882355" d="M 206.5 117 L 207 118.5 L 203.5 125 L 203 123.5 L 206.5 117 Z " /><path fill="rgb(255,105,31)" stroke="rgb(255,105,31)" stroke-width="1" opacity="0.49411764705882355" d="M 402.5 120 L 406 120.5 L 402.5 121 L 402.5 120 Z " /><path fill="rgb(255,105,31)" stroke="rgb(255,105,31)" stroke-width="1" opacity="0.49411764705882355" d="M 463.5 124 L 467 132.5 L 466 132.5 L 463.5 124 Z " /><path fill="rgb(255,105,31)" stroke="rgb(255,105,31)" stroke-width="1" opacity="0.49411764705882355" d="M 202.5 126 L 203 127.5 L 201.5 130 L 201 128.5 L 202.5 126 Z " /><path fill="rgb(255,105,31)" stroke="rgb(255,105,31)" stroke-width="1" opacity="0.49411764705882355" d="M 504.5 127 L 506 132.5 L 505 132.5 L 504.5 127 Z " /><path fill="rgb(255,105,31)" stroke="rgb(255,105,31)" stroke-width="1" opacity="0.49411764705882355" d="M 161.5 129 L 162 131.5 L 161 131.5 L 161.5 129 Z " /><path fill="rgb(255,105,31)" stroke="rgb(255,105,31)" stroke-width="1" opacity="0.49411764705882355" d="M 200.5 131 L 201 132.5 L 199.5 136 L 199 133.5 L 200.5 131 Z " /><path fill="rgb(255,105,31)" stroke="rgb(255,105,31)" stroke-width="1" opacity="0.49411764705882355" d="M 506.5 134 L 507 136.5 L 506 136.5 L 506.5 134 Z " /><path fill="rgb(255,105,31)" stroke="rgb(255,105,31)" stroke-width="1" opacity="0.49411764705882355" d="M 159.5 137 L 160 139.5 L 159 139.5 L 159.5 137 Z " /><path fill="rgb(255,105,31)" stroke="rgb(255,105,31)" stroke-width="1" opacity="0.49411764705882355" d="M 468.5 137 L 470 142.5 L 469 142.5 L 468.5 137 Z " /><path fill="rgb(255,105,31)" stroke="rgb(255,105,31)" stroke-width="1" opacity="0.49411764705882355" d="M 507.5 138 L 508 140.5 L 507 140.5 L 507.5 138 Z " /><path fill="rgb(255,105,31)" stroke="rgb(255,105,31)" stroke-width="1" opacity="0.49411764705882355" d="M 158.5 141 L 159 143.5 L 158 143.5 L 158.5 141 Z " /><path fill="rgb(255,105,31)" stroke="rgb(255,105,31)" stroke-width="1" opacity="0.49411764705882355" d="M 508.5 142 L 509 145.5 L 508 145.5 L 508.5 142 Z " /><path fill="rgb(255,105,31)" stroke="rgb(255,105,31)" stroke-width="1" opacity="0.49411764705882355" d="M 196.5 143 L 197 145.5 L 196 145.5 L 196.5 143 Z " /><path fill="rgb(255,105,31)" stroke="rgb(255,105,31)" stroke-width="1" opacity="0.49411764705882355" d="M 470.5 144 L 471 146.5 L 470 146.5 L 470.5 144 Z " /><path fill="rgb(255,105,31)" stroke="rgb(255,105,31)" stroke-width="1" opacity="0.49411764705882355" d="M 157.5 146 L 158 149.5 L 157 149.5 L 157.5 146 Z " /><path fill="rgb(255,105,31)" stroke="rgb(255,105,31)" stroke-width="1" opacity="0.49411764705882355" d="M 195.5 147 L 196 150.5 L 195 150.5 L 195.5 147 Z " /><path fill="rgb(255,105,31)" stroke="rgb(255,105,31)" stroke-width="1" opacity="0.49411764705882355" d="M 509.5 147 L 510 151.5 L 509 151.5 L 509.5 147 Z " /><path fill="rgb(255,105,31)" stroke="rgb(255,105,31)" stroke-width="1" opacity="0.49411764705882355" d="M 471.5 148 L 473 156.5 L 472 156.5 L 471.5 148 Z " /><path fill="rgb(255,105,31)" stroke="rgb(255,105,31)" stroke-width="1" opacity="0.49411764705882355" d="M 156.5 152 L 157 155.5 L 156 155.5 L 156.5 152 Z " /><path fill="rgb(255,105,31)" stroke="rgb(255,105,31)" stroke-width="1" opacity="0.49411764705882355" d="M 194.5 152 L 195 155.5 L 194 155.5 L 194.5 152 Z " /><path fill="rgb(255,105,31)" stroke="rgb(255,105,31)" stroke-width="1" opacity="0.49411764705882355" d="M 510.5 153 L 511 158.5 L 510 158.5 L 510.5 153 Z " /><path fill="rgb(255,105,31)" stroke="rgb(255,105,31)" stroke-width="1" opacity="0.49411764705882355" d="M 193.5 158 L 194 161.5 L 193 161.5 L 193.5 158 Z " /><path fill="rgb(255,105,31)" stroke="rgb(255,105,31)" stroke-width="1" opacity="0.49411764705882355" d="M 473.5 158 L 474 163.5 L 473 163.5 L 473.5 158 Z " /><path fill="rgb(255,105,31)" stroke="rgb(255,105,31)" stroke-width="1" opacity="0.49411764705882355" d="M 155.5 159 L 156 165.5 L 155 165.5 L 155.5 159 Z " /><path fill="rgb(255,105,31)" stroke="rgb(255,105,31)" stroke-width="1" opacity="0.49411764705882355" d="M 511.5 161 L 512 170.5 L 511 170.5 L 511.5 161 Z " /><path fill="rgb(255,105,31)" stroke="rgb(255,105,31)" stroke-width="1" opacity="0.49411764705882355" d="M 192.5 165 L 193 173.5 L 192 173.5 L 192.5 165 Z " /><path fill="rgb(255,105,31)" stroke="rgb(255,105,31)" stroke-width="1" opacity="0.49411764705882355" d="M 474.5 166 L 475 192.5 L 474 192.5 L 474.5 166 Z " /><path fill="rgb(255,105,31)" stroke="rgb(255,105,31)" stroke-width="1" opacity="0.49411764705882355" d="M 154.5 172 L 155 186.5 L 154 186.5 L 154.5 172 Z " /><path fill="rgb(255,105,31)" stroke="rgb(255,105,31)" stroke-width="1" opacity="0.49411764705882355" d="M 192.5 186 L 193 194.5 L 192 194.5 L 192.5 186 Z " /><path fill="rgb(255,105,31)" stroke="rgb(255,105,31)" stroke-width="1" opacity="0.49411764705882355" d="M 511.5 188 L 512 198.5 L 511 198.5 L 511.5 188 Z " /><path fill="rgb(255,105,31)" stroke="rgb(255,105,31)" stroke-width="1" opacity="0.49411764705882355" d="M 155.5 194 L 156 200.5 L 155 200.5 L 155.5 194 Z " /><path fill="rgb(255,105,31)" stroke="rgb(255,105,31)" stroke-width="1" opacity="0.49411764705882355" d="M 473.5 195 L 474 200.5 L 473 200.5 L 473.5 195 Z " /><path fill="rgb(255,105,31)" stroke="rgb(255,105,31)" stroke-width="1" opacity="0.49411764705882355" d="M 193.5 197 L 194 201.5 L 193 201.5 L 193.5 197 Z " /><path fill="rgb(255,105,31)" stroke="rgb(255,105,31)" stroke-width="1" opacity="0.49411764705882355" d="M 510.5 200 L 511 205.5 L 510 205.5 L 510.5 200 Z " /><path fill="rgb(255,105,31)" stroke="rgb(255,105,31)" stroke-width="1" opacity="0.49411764705882355" d="M 156.5 203 L 157 207.5 L 156 207.5 L 156.5 203 Z " /><path fill="rgb(255,105,31)" stroke="rgb(255,105,31)" stroke-width="1" opacity="0.49411764705882355" d="M 472.5 203 L 473 206.5 L 472 206.5 L 472.5 203 Z " /><path fill="rgb(255,105,31)" stroke="rgb(255,105,31)" stroke-width="1" opacity="0.49411764705882355" d="M 194.5 204 L 195 207.5 L 194 207.5 L 194.5 204 Z " /><path fill="rgb(255,105,31)" stroke="rgb(255,105,31)" stroke-width="1" opacity="0.49411764705882355" d="M 471.5 208 L 472 211.5 L 471 211.5 L 471.5 208 Z " /><path fill="rgb(255,105,31)" stroke="rgb(255,105,31)" stroke-width="1" opacity="0.49411764705882355" d="M 509.5 208 L 510 211.5 L 509 211.5 L 509.5 208 Z " /><path fill="rgb(255,105,31)" stroke="rgb(255,105,31)" stroke-width="1" opacity="0.49411764705882355" d="M 195.5 209 L 196 211.5 L 195 211.5 L 195.5 209 Z " /><path fill="rgb(255,105,31)" stroke="rgb(255,105,31)" stroke-width="1" opacity="0.49411764705882355" d="M 157.5 210 L 158 213.5 L 157 213.5 L 157.5 210 Z " /><path fill="rgb(255,105,31)" stroke="rgb(255,105,31)" stroke-width="1" opacity="0.49411764705882355" d="M 470.5 213 L 471 215.5 L 470 215.5 L 470.5 213 Z " /><path fill="rgb(255,105,31)" stroke="rgb(255,105,31)" stroke-width="1" opacity="0.49411764705882355" d="M 508.5 214 L 509 217.5 L 507.5 222 L 507 218.5 L 508.5 214 Z " /><path fill="rgb(255,105,31)" stroke="rgb(255,105,31)" stroke-width="1" opacity="0.49411764705882355" d="M 158.5 216 L 159 218.5 L 158 218.5 L 158.5 216 Z " /><path fill="rgb(255,105,31)" stroke="rgb(255,105,31)" stroke-width="1" opacity="0.49411764705882355" d="M 197.5 217 L 198 219.5 L 197 219.5 L 197.5 217 Z " /><path fill="rgb(255,105,31)" stroke="rgb(255,105,31)" stroke-width="1" opacity="0.49411764705882355" d="M 469.5 217 L 470 219.5 L 465.5 231 L 465 229.5 L 469.5 217 Z " /><path fill="rgb(255,105,31)" stroke="rgb(255,105,31)" stroke-width="1" opacity="0.49411764705882355" d="M 159.5 220 L 160 222.5 L 159 222.5 L 159.5 220 Z " /><path fill="rgb(255,105,31)" stroke="rgb(255,105,31)" stroke-width="1" opacity="0.49411764705882355" d="M 506.5 223 L 507 225.5 L 506 225.5 L 506.5 223 Z " /><path fill="rgb(255,105,31)" stroke="rgb(255,105,31)" stroke-width="1" opacity="0.49411764705882355" d="M 160.5 224 L 161 226.5 L 160 226.5 L 160.5 224 Z " /><path fill="rgb(255,105,31)" stroke="rgb(255,105,31)" stroke-width="1" opacity="0.49411764705882355" d="M 505.5 227 L 506 229.5 L 504.5 233 L 504 230.5 L 505.5 227 Z " /><path fill="rgb(255,105,31)" stroke="rgb(255,105,31)" stroke-width="1" opacity="0.49411764705882355" d="M 201.5 230 L 203 233.5 L 202 233.5 L 201.5 230 Z " /><path fill="rgb(255,105,31)" stroke="rgb(255,105,31)" stroke-width="1" opacity="0.49411764705882355" d="M 162.5 231 L 163 233.5 L 162 233.5 L 162.5 231 Z " /><path fill="rgb(255,105,31)" stroke="rgb(255,105,31)" stroke-width="1" opacity="0.49411764705882355" d="M 464.5 232 L 465 233.5 L 462.5 238 L 462 236.5 L 464.5 232 Z " /><path fill="rgb(255,105,31)" stroke="rgb(255,105,31)" stroke-width="1" opacity="0.49411764705882355" d="M 503.5 234 L 504 235.5 L 500.5 244 L 500 242.5 L 503.5 234 Z " /><path fill="rgb(255,105,31)" stroke="rgb(255,105,31)" stroke-width="1" opacity="0.49411764705882355" d="M 204.5 237 L 211 249.5 L 209 248.5 L 204 238.5 L 204.5 237 Z " /><path fill="rgb(255,105,31)" stroke="rgb(255,105,31)" stroke-width="1" opacity="0.49411764705882355" d="M 461.5 239 L 462 240.5 Q 448.3 268.8 425.5 288 Q 409.4 302.4 387.5 311 L 387.5 310 Q 419.6 297.1 440 272.5 Q 453 258 461.5 239 Z " /><path fill="rgb(255,105,31)" stroke="rgb(255,105,31)" stroke-width="1" opacity="0.49411764705882355" d="M 165.5 241 L 167 244.5 L 166 244.5 L 165.5 241 Z " /><path fill="rgb(255,105,31)" stroke="rgb(255,105,31)" stroke-width="1" opacity="0.49411764705882355" d="M 499.5 245 L 500 246.5 L 494.5 258 L 494 256.5 L 499.5 245 Z " /><path fill="rgb(255,105,31)" stroke="rgb(255,105,31)" stroke-width="1" opacity="0.49411764705882355" d="M 167.5 246 L 169 249.5 L 168 249.5 L 167.5 246 Z " /><path fill="rgb(255,105,31)" stroke="rgb(255,105,31)" stroke-width="1" opacity="0.49411764705882355" d="M 211.5 251 L 214 254.5 L 212 253.5 L 211.5 251 Z " /><path fill="rgb(255,105,31)" stroke="rgb(255,105,31)" stroke-width="1" opacity="0.49411764705882355" d="M 170.5 253 L 178 267.5 L 176 266.5 L 170 254.5 L 170.5 253 Z " /><path fill="rgb(255,105,31)" stroke="rgb(255,105,31)" stroke-width="1" opacity="0.49411764705882355" d="M 214.5 256 Q 226.3 274.2 242.5 288 L 267 304.5 L 265.5 304 Q 240.8 291.2 224 270.5 L 215 258.5 L 214.5 256 Z " /><path fill="rgb(255,105,31)" stroke="rgb(255,105,31)" stroke-width="1" opacity="0.49411764705882355" d="M 493.5 259 L 493 260.5 Q 477.5 293 451.5 315 Q 438.3 327.3 421.5 336 L 422.5 334 L 440.5 323 L 467 298.5 Q 482.6 281.1 493.5 259 Z " /><path fill="rgb(255,105,31)" stroke="rgb(255,105,31)" stroke-width="1" opacity="0.49411764705882355" d="M 178.5 269 L 181 272.5 L 179 271.5 L 178.5 269 Z " /><path fill="rgb(255,105,31)" stroke="rgb(255,105,31)" stroke-width="1" opacity="0.49411764705882355" d="M 181.5 274 Q 196.5 298 217.5 316 L 244 334.5 L 242.5 334 Q 215.2 318.8 196 295.5 L 182 276.5 L 181.5 274 Z " /><path fill="rgb(255,105,31)" stroke="rgb(255,105,31)" stroke-width="1" opacity="0.49411764705882355" d="M 178.5 289 L 156.5 312 L 178.5 289 Z " /><path fill="rgb(255,105,31)" stroke="rgb(255,105,31)" stroke-width="1" opacity="0.49411764705882355" d="M 180.5 289 L 184 293.5 L 181 291.5 L 180.5 289 Z " /><path fill="rgb(255,105,31)" stroke="rgb(255,105,31)" stroke-width="1" opacity="0.49411764705882355" d="M 184.5 295 L 187.5 299 L 184.5 295 Z " /><path fill="rgb(255,105,31)" stroke="rgb(255,105,31)" stroke-width="1" opacity="0.49411764705882355" d="M 188.5 300 L 205.5 318 L 222 331.5 L 197.5 355 L 156.5 313 L 198.5 354 L 221 331.5 L 219.5 330 Q 205.3 320.2 194 307.5 L 188.5 300 Z " /><path fill="rgb(255,105,31)" stroke="rgb(255,105,31)" stroke-width="1" opacity="0.49411764705882355" d="M 274.5 308 L 280 310.5 L 278.5 311 L 274.5 309 L 274.5 308 Z " /><path fill="rgb(255,105,31)" stroke="rgb(255,105,31)" stroke-width="1" opacity="0.49411764705882355" d="M 131.5 311 L 138 311.5 L 131.5 312 L 131.5 311 Z " /><path fill="rgb(255,105,31)" stroke="rgb(255,105,31)" stroke-width="1" opacity="0.49411764705882355" d="M 281.5 311 L 285 312.5 L 283.5 313 L 281.5 311 Z " /><path fill="rgb(255,105,31)" stroke="rgb(255,105,31)" stroke-width="1" opacity="0.49411764705882355" d="M 384.5 311 L 386 311.5 L 371.5 317 L 364.5 318 L 364.5 317 L 371.5 316 L 384.5 311 Z " /><path fill="rgb(255,105,31)" stroke="rgb(255,105,31)" stroke-width="1" opacity="0.49411764705882355" d="M 124.5 314 L 106 333.5 L 106 335.5 L 151 380.5 L 151 384.5 L 72.5 462 L 72.5 461 L 150 384.5 L 150 380.5 L 105 335.5 L 105 333.5 L 124.5 314 Z " /><path fill="rgb(255,105,31)" stroke="rgb(255,105,31)" stroke-width="1" opacity="0.49411764705882355" d="M 144.5 314 L 198 368.5 L 196 367.5 L 144.5 314 Z " /><path fill="rgb(255,105,31)" stroke="rgb(255,105,31)" stroke-width="1" opacity="0.49411764705882355" d="M 292.5 315 L 298 316.5 L 295.5 317 L 292.5 316 L 292.5 315 Z " /><path fill="rgb(255,105,31)" stroke="rgb(255,105,31)" stroke-width="1" opacity="0.49411764705882355" d="M 299.5 317 L 307 318.5 L 303.5 319 L 299.5 318 L 299.5 317 Z " /><path fill="rgb(255,105,31)" stroke="rgb(255,105,31)" stroke-width="1" opacity="0.49411764705882355" d="M 359.5 318 L 363 318.5 L 359.5 319 L 359.5 318 Z " /><path fill="rgb(255,105,31)" stroke="rgb(255,105,31)" stroke-width="1" opacity="0.49411764705882355" d="M 309.5 319 L 313 319.5 L 309.5 320 L 309.5 319 Z " /><path fill="rgb(255,105,31)" stroke="rgb(255,105,31)" stroke-width="1" opacity="0.49411764705882355" d="M 354.5 319 L 358 319.5 L 354.5 320 L 354.5 319 Z " /><path fill="rgb(255,105,31)" stroke="rgb(255,105,31)" stroke-width="1" opacity="0.49411764705882355" d="M 315.5 320 L 322 320.5 L 315.5 321 L 315.5 320 Z " /><path fill="rgb(255,105,31)" stroke="rgb(255,105,31)" stroke-width="1" opacity="0.49411764705882355" d="M 344.5 320 L 352 320.5 L 344.5 321 L 344.5 320 Z " /><path fill="rgb(255,105,31)" stroke="rgb(255,105,31)" stroke-width="1" opacity="0.49411764705882355" d="M 326.5 321 L 341 321.5 L 326.5 322 L 326.5 321 Z " /><path fill="rgb(255,105,31)" stroke="rgb(255,105,31)" stroke-width="1" opacity="0.49411764705882355" d="M 245.5 335 L 262 343.5 L 260.5 344 L 246.5 337 L 245.5 335 Z " /><path fill="rgb(255,105,31)" stroke="rgb(255,105,31)" stroke-width="1" opacity="0.49411764705882355" d="M 419.5 336 L 418.5 338 L 407.5 343 L 407.5 342 L 419.5 336 Z " /><path fill="rgb(255,105,31)" stroke="rgb(255,105,31)" stroke-width="1" opacity="0.49411764705882355" d="M 96.5 342 L 137 382.5 L 71.5 448 L 31 408.5 L 96.5 342 Z M 97 343 L 32 409 L 72 447 L 136 383 L 97 343 Z " /><path fill="rgb(255,105,31)" stroke="rgb(255,105,31)" stroke-width="1" opacity="0.49411764705882355" d="M 404.5 343 L 406 343.5 L 400.5 346 L 400.5 345 L 404.5 343 Z " /><path fill="rgb(255,105,31)" stroke="rgb(255,105,31)" stroke-width="1" opacity="0.49411764705882355" d="M 263.5 344 L 267 345.5 L 265.5 346 L 263.5 344 Z " /><path fill="rgb(255,105,31)" stroke="rgb(255,105,31)" stroke-width="1" opacity="0.49411764705882355" d="M 268.5 346 L 272 347.5 L 270.5 348 L 268.5 346 Z " /><path fill="rgb(255,105,31)" stroke="rgb(255,105,31)" stroke-width="1" opacity="0.49411764705882355" d="M 397.5 346 L 399 346.5 L 392.5 349 L 392.5 348 L 397.5 346 Z " /><path fill="rgb(255,105,31)" stroke="rgb(255,105,31)" stroke-width="1" opacity="0.49411764705882355" d="M 385.5 350 L 388 350.5 L 382.5 352 L 382.5 351 L 385.5 350 Z " /><path fill="rgb(255,105,31)" stroke="rgb(255,105,31)" stroke-width="1" opacity="0.49411764705882355" d="M 282.5 351 L 285 351.5 L 282.5 352 L 282.5 351 Z " /><path fill="rgb(255,105,31)" stroke="rgb(255,105,31)" stroke-width="1" opacity="0.49411764705882355" d="M 286.5 352 L 293 353.5 L 289.5 354 L 286.5 353 L 286.5 352 Z " /><path fill="rgb(255,105,31)" stroke="rgb(255,105,31)" stroke-width="1" opacity="0.49411764705882355" d="M 378.5 352 L 381 352.5 L 378.5 353 L 378.5 352 Z " /><path fill="rgb(255,105,31)" stroke="rgb(255,105,31)" stroke-width="1" opacity="0.49411764705882355" d="M 374.5 353 L 377 353.5 L 374.5 354 L 374.5 353 Z " /><path fill="rgb(255,105,31)" stroke="rgb(255,105,31)" stroke-width="1" opacity="0.49411764705882355" d="M 294.5 354 L 297 354.5 L 294.5 355 L 294.5 354 Z " /><path fill="rgb(255,105,31)" stroke="rgb(255,105,31)" stroke-width="1" opacity="0.49411764705882355" d="M 370.5 354 L 373 354.5 L 370.5 355 L 370.5 354 Z " /><path fill="rgb(255,105,31)" stroke="rgb(255,105,31)" stroke-width="1" opacity="0.49411764705882355" d="M 298.5 355 L 303 355.5 L 298.5 356 L 298.5 355 Z " /><path fill="rgb(255,105,31)" stroke="rgb(255,105,31)" stroke-width="1" opacity="0.49411764705882355" d="M 364.5 355 L 369 355.5 L 364.5 356 L 364.5 355 Z " /><path fill="rgb(255,105,31)" stroke="rgb(255,105,31)" stroke-width="1" opacity="0.49411764705882355" d="M 304.5 356 L 309 356.5 L 304.5 357 L 304.5 356 Z " /><path fill="rgb(255,105,31)" stroke="rgb(255,105,31)" stroke-width="1" opacity="0.49411764705882355" d="M 358.5 356 L 363 356.5 L 358.5 357 L 358.5 356 Z " /><path fill="rgb(255,105,31)" stroke="rgb(255,105,31)" stroke-width="1" opacity="0.49411764705882355" d="M 311.5 357 L 318 357.5 L 311.5 358 L 311.5 357 Z " /><path fill="rgb(255,105,31)" stroke="rgb(255,105,31)" stroke-width="1" opacity="0.49411764705882355" d="M 349.5 357 L 356 357.5 L 349.5 358 L 349.5 357 Z " /><path fill="rgb(255,105,31)" stroke="rgb(255,105,31)" stroke-width="1" opacity="0.49411764705882355" d="M 322.5 358 L 345 358.5 L 322.5 359 L 322.5 358 Z " /><path fill="rgb(255,105,31)" stroke="rgb(255,105,31)" stroke-width="1" opacity="0.49411764705882355" d="M 199.5 373 L 200 378.5 L 199 378.5 L 199.5 373 Z " /><path fill="rgb(255,105,31)" stroke="rgb(255,105,31)" stroke-width="1" opacity="0.49411764705882355" d="M 198.5 380 L 199 382.5 L 73.5 509 L 71.5 510 L 72.5 508 L 197 384.5 L 198.5 380 Z " /><path fill="rgb(255,105,31)" stroke="rgb(255,105,31)" stroke-width="1" opacity="0.49411764705882355" d="M 22.5 416 L 70 461.5 L 68.5 462 L 22.5 417 L 3 436.5 L 0.5 443 L 0 440.5 L 2 436.5 L 22.5 416 Z " /><path fill="rgb(255,105,31)" stroke="rgb(255,105,31)" stroke-width="1" opacity="0.49411764705882355" d="M 0.5 449 L 3 454.5 L 1 453.5 L 0.5 449 Z " /><path fill="rgb(255,105,31)" stroke="rgb(255,105,31)" stroke-width="1" opacity="0.49411764705882355" d="M 3.5 456 L 54.5 508 L 3.5 456 Z " /><path fill="rgb(255,105,31)" stroke="rgb(255,105,31)" stroke-width="1" opacity="0.49411764705882355" d="M 56.5 508 L 59 509.5 L 57.5 510 L 56.5 508 Z " /><path fill="rgb(255,105,31)" stroke="rgb(255,105,31)" stroke-width="1" opacity="0.49411764705882355" d="M 60.5 510 L 63 510.5 L 60.5 511 L 60.5 510 Z " /><path fill="rgb(255,105,31)" stroke="rgb(255,105,31)" stroke-width="1" opacity="0.49411764705882355" d="M 67.5 510 L 70 510.5 L 67.5 511 L 67.5 510 Z " /><path fill="rgb(255,106,31)" stroke="rgb(255,106,31)" stroke-width="1" opacity="0.996078431372549" d="M 315.5 2 L 351.5 2 Q 353.3 4.8 359.5 3 L 382.5 8 L 402.5 15 Q 442.7 32.3 469 63.5 Q 489 86.5 501 117.5 L 510 152.5 L 511 170.5 L 512 171.5 L 512 187.5 L 511 188.5 L 510 207.5 L 506 226.5 L 494 258.5 Q 477.9 290.4 452.5 313 Q 427.3 336.3 391.5 349 L 357.5 357 L 349.5 357 L 348.5 358 L 318.5 358 L 317.5 357 L 309.5 357 L 308.5 356 L 297.5 355 L 282.5 351 L 251 338 L 251.5 296 Q 283.3 321.7 340.5 322 L 341.5 321 L 351.5 321 L 367.5 318 L 388.5 311 Q 420.9 296.9 442 271.5 Q 460.6 250.1 470 219.5 L 475 192.5 L 475 166.5 L 470 140.5 L 463 121.5 Q 451.4 96.1 432.5 78 Q 411.7 57.3 381.5 46 L 353.5 39 L 322.5 38 L 321.5 39 L 313.5 39 L 302.5 41 L 284.5 46 Q 265.6 52.6 251.5 64 L 251 22.5 L 260.5 17 L 281.5 9 L 296.5 5 L 314.5 3 L 315.5 2 Z " /><path fill="rgb(255,106,31)" stroke="rgb(255,106,31)" stroke-width="1" opacity="0.996078431372549" d="M 325.5 69 L 349.5 70 L 375.5 77 Q 396.8 86.2 412 101.5 Q 415 104.5 415 110.5 Q 413.8 116.3 409.5 119 L 401.5 120 L 377.5 102 L 364.5 96 L 344.5 91 L 322.5 91 L 311.5 93 L 290.5 101 Q 277.4 108.4 267.5 119 L 261.5 120 Q 255.4 118.6 253 113.5 L 252 107.5 L 253 104.5 L 263.5 94 L 271.5 88 L 291.5 77 L 306.5 72 L 316.5 70 L 324.5 70 L 325.5 69 Z " /><path fill="rgb(255,155,11)" stroke="rgb(255,155,11)" stroke-width="1" opacity="0.9568627450980393" d="M 251.5 21 L 251 22.5 L 251 64.5 L 249.5 66 L 230 82.5 Q 210 103.5 199 133.5 L 195 147.5 L 193 164.5 L 192 165.5 L 192 194.5 L 197 219.5 L 209 248.5 Q 222.3 272.3 242.5 289 L 251 295.5 L 250.5 338 Q 219.6 321.9 198 296.5 Q 175.1 270.9 163 234.5 L 156 202.5 L 156 194.5 L 155 193.5 L 155 166.5 L 156 165.5 L 156 156.5 L 160 135.5 L 168 111.5 Q 183.3 75.8 209.5 51 Q 227.8 33.3 251.5 21 Z " /><path fill="rgb(255,155,11)" stroke="rgb(255,155,11)" stroke-width="1" opacity="0.9568627450980393" d="M 269.5 89 L 268.5 91 L 269.5 89 Z " /><path fill="rgb(255,155,11)" stroke="rgb(255,155,11)" stroke-width="1" opacity="0.9568627450980393" d="M 265.5 92 L 264.5 94 L 265.5 92 Z " /><path fill="rgb(255,155,11)" stroke="rgb(255,155,11)" stroke-width="1" opacity="0.9568627450980393" d="M 259.5 97 L 254.5 103 L 259.5 97 Z " /><path fill="rgb(255,155,11)" stroke="rgb(255,155,11)" stroke-width="1" opacity="0.9568627450980393" d="M 273.5 113 L 269.5 118 L 273.5 113 Z " /><path fill="rgb(255,155,11)" stroke="rgb(255,155,11)" stroke-width="1" opacity="0.9568627450980393" d="M 253.5 114 L 257.5 119 L 253.5 114 Z " /><path fill="rgb(255,155,11)" stroke="rgb(255,155,11)" stroke-width="1" opacity="0.9568627450980393" d="M 179.5 289 Q 190.8 305.7 205.5 319 L 221 331.5 L 197.5 354 L 156 312.5 L 179.5 289 Z " /><path fill="rgb(255,155,11)" stroke="rgb(255,155,11)" stroke-width="1" opacity="0.9568627450980393" d="M 252.5 296 L 253.5 298 L 252.5 296 Z " /><path fill="rgb(255,155,11)" stroke="rgb(255,155,11)" stroke-width="1" opacity="0.9568627450980393" d="M 130.5 312 Q 139.1 310.9 143.5 314 L 196 366.5 Q 200.2 370.3 199 379.5 L 197 384.5 L 73.5 508 Q 70.3 511.3 63.5 511 L 55.5 508 L 3 455.5 L 0 448.5 L 0 443.5 L 3 436.5 L 22.5 417 L 68.5 462 L 73.5 462 L 151 384.5 L 151 380.5 L 106 335.5 L 106 333.5 L 125.5 314 L 130.5 312 Z " /><path fill="rgb(255,155,11)" stroke="rgb(255,155,11)" stroke-width="1" opacity="0.9568627450980393" d="M 96.5 343 L 136 382.5 L 71.5 447 L 32 408.5 L 96.5 343 Z " /></svg>